<svg id="Livello_1" data-name="Livello 1" xmlns="http://www.w3.org/2000/svg" viewBox="0 0 682 684"><defs><style>.cls-1{fill:#fefefe;}.cls-2{fill:#d43729;}.cls-3{fill:#fce212;}.cls-4{fill:#e1c937;}.cls-5{fill:#3ba945;}.cls-6{fill:#075c99;}.cls-7{fill:#23201e;}.cls-8{fill:#331e13;}.cls-9{fill:#734e0a;}.cls-10{fill:#e9e7e8;}</style></defs><path class="cls-1" d="M1301,882H619V198h682ZM960.3,199.7c-66.1-.4-127,17.5-182.6,52.7-53.8,34.1-94.7,80.2-122.9,137.4-22.1,44.6-34,92-34.6,141.7-1.2,103.2,35.4,191,111.9,260.7,67,61.1,147,90.1,237.6,87.6,88.9-2.3,165.7-35.2,229-97.4,66.3-65.1,99.8-145.5,100.9-238,1.2-98-33.7-182.5-104.6-250.5C1129.7,231.2,1050.8,200.6,960.3,199.7Z" transform="translate(-619 -198)"/><path class="cls-2" d="M960.3,199.7c90.5.9,169.4,31.5,234.7,94.2,70.9,68,105.8,152.5,104.6,250.5-1.1,92.5-34.6,172.9-100.9,238-63.3,62.2-140.1,95.1-229,97.4-90.6,2.5-170.6-26.5-237.6-87.6C655.6,722.5,619,634.7,620.2,531.5c.6-49.7,12.5-97.1,34.6-141.7,28.2-57.2,69.1-103.3,122.9-137.4C833.3,217.2,894.2,199.3,960.3,199.7Zm331.3,349.2-.6-27c-.9-10.4-1.5-20.9-3-31.2-7.3-52.5-27-100.3-57.5-143.5a318.1,318.1,0,0,0-47.5-53.5,328.8,328.8,0,0,0-77.8-52.6,340.8,340.8,0,0,0-72.3-25.3,301.9,301.9,0,0,0-64.7-7.8c-17-.1-33.9,1.4-50.8,2.8-27,2.3-52.9,9.9-78,19.6a325.5,325.5,0,0,0-75.9,42,333.9,333.9,0,0,0-71.4,71.5,342.9,342.9,0,0,0-38.2,67.5,318.7,318.7,0,0,0-25.4,112.8c-.8,20.6.8,41.5,3.4,62,6.3,50.5,24.5,96.8,52.8,139.1a331.1,331.1,0,0,0,63.7,70.5,321.2,321.2,0,0,0,61.9,40.7,336.4,336.4,0,0,0,196.8,32.3,326.8,326.8,0,0,0,115-39.1,332.5,332.5,0,0,0,115.1-107,315.3,315.3,0,0,0,48.4-120.4C1288.8,584.7,1289.7,566.7,1291.6,548.9Z" transform="translate(-619 -198)"/><path class="cls-3" d="M1291.6,548.9c-1.9,17.8-2.8,35.8-6,53.4a315.3,315.3,0,0,1-48.4,120.4,332.5,332.5,0,0,1-115.1,107,326.8,326.8,0,0,1-115,39.1,336.4,336.4,0,0,1-196.8-32.3,321.2,321.2,0,0,1-61.9-40.7,331.1,331.1,0,0,1-63.7-70.5c-28.3-42.3-46.5-88.6-52.8-139.1-2.6-20.5-4.2-41.4-3.4-62a318.7,318.7,0,0,1,25.4-112.8,342.9,342.9,0,0,1,38.2-67.5,333.9,333.9,0,0,1,71.4-71.5,325.5,325.5,0,0,1,75.9-42c25.1-9.7,51-17.3,78-19.6,16.9-1.4,33.8-2.9,50.8-2.8a301.9,301.9,0,0,1,64.7,7.8,340.8,340.8,0,0,1,72.3,25.3,328.8,328.8,0,0,1,77.8,52.6,318.1,318.1,0,0,1,47.5,53.5c30.5,43.2,50.2,91,57.5,143.5,1.5,10.3,2.1,20.8,3,31.2ZM1190.4,384.1l-.3.3-1,.7-1.1.9-7.7,7.1-.2.2-1.9,1.8h-.2l-1.9,1.9-1.1,1-3.6,3.1-.2.2-1.9,1.7-.2.2-1.9,1.8c-8.3,8.2-19.2,13.8-24.5,24.9a34.4,34.4,0,0,0-3,3.5c-1.3,1.8-2.4,3.8-3.6,5.8-13.2,7.6-26.3,15.3-39.5,22.7-2.2,1.2-4.9,1.3-7.4,1.9-2.7-9.2-9.3-14.5-18-16.8-12.2-3.4-21.3,2.2-28.2,11.7-9.9-4.1-20.4-.3-26.5,6.5s-7,15.5-6.2,24.3c.7,1.7,1.3,3.5,1.9,5.2h0l1,1.9h0l1,2.1c.2.1.2.3.1.5,2.3,4,.6,6.7-3,8.7l-30.6,16.9c-10.8,6-21.5,11.9-32.2,18.1-5.6,3.2-10.9,6.8-17.9,5.9-3.6-.5-7.3-.1-10.9,0-3-2-6.3-3.7-9.1-6-12.2-10-15.1-10.1-27.7-.6l-.8.6c-2.2,1.3-4.8,2.4-6.7,4.1-5.3,4.8-10.2,10-15.4,14.8-3.2,3.1-6.7,5.9-10.1,8.9-9.4,1.5-18.8,2.8-28.1,4.4-7.7,1.4-15.1,4.7-23.2,2.9-.5-.1-1.2.4-1.9.5l-14,2.3c-2.2.3-4.5-.3-6.5.3-8.3,3-16.7,3.3-25.3,2-2.3-.3-6.5-.5-6.9.5-1.7,3.9-4.8,2.8-7.5,3.2l-8.7,1.6a23.4,23.4,0,0,1-5.9.3c-5.7-1.1-11.3-2.6-17-3.7-1.3-.3-2.9.1-4.3.2v1.4l12.9,3.3c-21.4,3.4-42.3,2.7-61.8,9.3-1.9,5.3-.6,9.1,4,11.2,2.8,1.4,6.1,1.8,9.2,2.6.7,2.8,2.4,4,5.4,3.9a22.4,22.4,0,0,1,6.1,1.4c4.6,1.4,9.2,3.2,13.9,4.4,9.4,2.2,19,4,28.4,6.3s18.4,5.7,27.8,7.6,19.7,2.6,29.4,4.4c3.7.6,8.7.9,10,5.6s1.7,10.5,2.6,16.3c2.8-2.2,5.1-3.8,2.1-6.4s-2.9-6.2-.5-9.5c4.4,5.1,5.1,11,4.5,17.3-1.7,17-8.9,32.4-14.6,48.2-3.9,10.7-7.5,21.5-11.2,32.3H766l-.6-3.5-1.4.6,2,2.9-2.3,4.3-1.3-.7-.7-4.6a9.5,9.5,0,0,0-1,6.3c.4,2.4,1.6,4.5,2.4,6.8-1,3.3-1.9,6.6-2.9,10l-3.8,7.1c-.4-1.6-.8-3.1-1.1-4.6l-1.5.2,2.4,16.6c.5,7.8,3.6,10.5,8.5,7a54.2,54.2,0,0,0,9.1-7.5c9.8-10.3,19.8-20.7,29.2-31.5,12.9-14.9,25.3-30.2,38-45.4,1.5-1,3.4-1.8,4.6-3.2,4.5-5.1,8.7-10.5,13.2-15.6,3-3.4,7-6.1,9.5-9.8a80.3,80.3,0,0,1,13.2-14.1c5.4-4.9,10.8-9.4,18-10.9s17.2-3.3,25.9-4.6c2.3-.4,4.9.3,7.3-.1,7.5-1.1,14.9-2.5,22.4-3.7,1.2-.2,2.3,0,3.5-.2l24.9-3.8,8.5-1.7c3.5-.8,7-2.1,10.4-2.2s5.9-2.1,5.6-6.1-2.6-8.1-6.3-10.4c-5.4-3.4-11.1-6.3-16.7-9.4-1.9-1.4-3.8-3.6-5.9-4s-3.3-1.9-3.1-4.2h9.3c0-.6-.1-1.2-.1-1.8-3.1.7-6.5-2.1-9.2,1.8l-8.3,2.1c-6.1-2.1-12.3-3.8-18.2-6.3s-6.6-5.1-5.4-11.7c1.2-1.5,2.9-2.8,3.5-4.4,2.4-6.8,7.8-10.3,13.6-13.6s13.1-7.6,19.4-11.8,7.6-3.4,11.5,1.5v.2l3.6,7.7c1.1,2.2,2.5,4.3,3.1,6.6a12.2,12.2,0,0,1,.1,5.4c-1.4,6.6,4.3,10.4,5.9,15.9,0,.3,1.5.2,2.3.3,12.3,9.3,24.7,9.4,37.5.7s18.5-19.6,26.1-30.7a14.7,14.7,0,0,1,2.1-2.2,11.8,11.8,0,0,1,1.8,2.1c5.2,8.7,10.3,17.4,15.4,26.2,1.3,2.5,1.8,5.9,3.8,7.5,5.8,4.6,12.4,8.2,18.1,12.8s13.9,6.1,21.5,5.5c2.4-.2,4.5-2.5,6.8-3.9l-.8-1.5-3.3-.3c-3.2-5.8-6.2-10.7-14.5-11.4-5.6-.5-11.3-5.1-15.9-9.1s-5.5-8.1-8.2-12.2a24.3,24.3,0,0,0-1.7-5.4c-2.3-4.4-5.5-8.5-1.9-13.9a42.2,42.2,0,0,0,4.5,1.8c6.9,2.1,13.8,5,20.8,5.6s11.1-2.1,16.7-3.3c3.1-.9,6.5-1.4,9.4-2.8,15.8-7.8,19.5-30.4,6.5-41.5-2.9-2.5-4.2-4.6-3.6-8.7,1.8-11.2-2.7-20.4-12.4-25.7a26.4,26.4,0,0,0-28.4,1.5c-6.8,4.8-12.8,10.8-19.1,16.2.9-5,1.9-10.2,2.9-15.3a29.6,29.6,0,0,0,4.2-1.4c7.9-4.9,15.7-10,23.6-15l25.6-15.9c1.9.5,3.9,1.6,5.9,1.5a101.4,101.4,0,0,0,10.6-1.7c3.6-.3,7.4.2,10.7-.9,19.2-6.5,38.3-13.3,57.3-20,1.2-.4,2.2-1.4,4.5-2.9L1220,430l-5.9-2.9c-4.1-3.6-8.9-4.5-14.1-4h-.1l-7-4.1-1.1,1a58.5,58.5,0,0,1-.7-7.2c.1-2.4.5-4.8.8-7.3l6.3-27.1-1.2-.6a27.3,27.3,0,0,0-2.3,2.5c-.2,0-.3.1-.4.3l-2.8,2.6-.4.3ZM926.1,447c.1.5.3.9.4,1.4l.4,1.6.6,1.4.8,1.6,1.7,1.9c2.4,2,4.6,4.5,7.3,5.7s6.8,1.7,10.2,2.5l1.2-9.3v-.4c1-1.7,2.5-3.2,2.7-4.9s-.6-4.6-1-6.9c-1.7-8.2-3.5-16.4-5.2-24.6,4,3.5,7.9,7,12,10.4l18.7,15.7,3.7,11.2c1.8-3.9,3.1-6.6,4.3-9.4h0c1.4-2,3.2-3.8,4-6,1.9-5.6,3.4-11.4,5-17.2-.9-1.5-1.6-3.9-3-4.6a123.4,123.4,0,0,1-31.7-23.4c.8-1.5,1.8-3.1,2.5-4.7,1.9-5,3.7-10.1,5.6-15.2,6.1-16.1,2.2-30.1-10.6-37.5s-18.4-3.7-21.8,9.2c-1.3,5-2.5,10.1-4,16.2l-6.5-19.6c-4.1,3.8-7.3,6.9-10.8,9.7s-4.4,5.6-2,9.4c-4,2.4-5,5.4-2.3,9.5a36.8,36.8,0,0,1,2.3,4.9c6.2,14.3,13,28.4,13.5,44.3l1.6,24.2.3,1.9c-.1,0-.3.2-.2.2s.2.3.3.5ZM722.8,546.2h0l1.1,3,11.1,9c2.5.2,5.5,1.3,7.3.3s.9-4.3,1.2-6.7a9.9,9.9,0,0,0-.3-2.4c4.8-1.6,3.1-5.3,2.3-8.3-1.7-6.7-4.2-13.3-5.7-20.1s-3.1-14,.1-21c1.3-.6,2.7-1.9,3.9-1.6s2,1.9,2.3,3.2c3.5,15,6.8,30.1,10.2,45.1.5,2.1.5,5.1,1.8,6s4.7-.2,6.3-2.9,3.2-5.1,5.5-6.2,4.8-3.4,4.3-7.5,1.6-6.1,2-9.2c.2-1.1-1.2-2.4-1.6-3.6-1-2.8-2.5-5.7-2.4-8.5s-1.5-5.8-4.2-7.6c-1-3.7-2.1-7.3-3-11-1.7-7-3.3-13.9-5.1-20.8a11,11,0,0,0-10.1-8.4c-2.6-.2-5.7,3-8.1,5.1a16.2,16.2,0,0,0-3.3,5.5c-1.9,4.9-3.6,9.8-5.9,16.1-1.2-2.4-2.2-3.6-2.5-4.9a229.4,229.4,0,0,1-3.9-51.6,15,15,0,0,0,0-3c-.3-1.2-.7-3-1.5-3.3a3.9,3.9,0,0,0-3.4,1.3c-3.4,3.8-7.2,7.5-9.8,11.9s-2.2,7.4-3.2,11.2-2.9,4.8-2.6,6.9c2,12.1,4.6,24,6.9,35.9,2.9,14.7,10.9,28.4,9.7,44l.2,3.1ZM928.5,796.1v.4l.4.2c3.4,2.8,6.5,6,10.3,8.2,6.8,4,9.2,3.4,14.9-1.9,4.4-1.4,10.9-11.4,10.5-16.3l.3.3-.3-.3c1.1-1.2,2.7-2.3,3.2-3.8s.8-4.8,1.1-7.2.7-2.5,1.1-3.7c1,1,2,2,3.1,2.9,4.9,4,9.9,8.2,15,11.9,1.5,1.1,3.7,1,6.5,1.6,9.4-6.5,7.9-18.7,11.8-28l5.8,6.5a49.3,49.3,0,0,0,4.2,4.9c.9.7,3,1.2,3.6.7a56.8,56.8,0,0,0,7.5-8c.5-.5-.7-2.3-1.1-3.5l4.1-7.5c-14.2-17.9-15.3-20.1-17.1-36.9-.3-2.6-.2-5.3-.5-7.9-.6-6.2-3.5-11-9.3-13.7-2.9-1.4-5.7-1.1-6.3,2.2-1.2,6.2-4.4,6.3-9.1,4.1s-6.4-.9-7.5,3.4l-7.8,32.1c-.7,3-1.3,6.1-2,9.1l-.9,15c-2.5-.6-6.3-5.1-5.9,2.2-2.8,4.9-5.4,9.9-8.4,14.6-.7,1.1-3.7,2.3-4.4,1.8-3-2.5-6.8-5.1-8.2-8.6-2.2-5.4-2.9-11.5-3.8-17.4-.6-4.2-.4-8.4-.6-12.7l8.4,15.1c.5,1.6,1.1,3.2,1.6,4.8,1.2-1,2.4-2.1,3.7-3a37.8,37.8,0,0,1,5.4-4.3c4.6-2.9,6.2-8,4.1-13.5l.9-2.9c-3-5.7-5.6-11.6-9-16.9s-9.1-4.9-13.6-2.2c-2,1.1-4.4,1.8-5.8,3.4s-4.2,5.8-6.3,8.8a1.3,1.3,0,0,1-.4.9c-1.5,1.6-3.7,3-4.3,5-1.1,3.6-1.3,7.5-1.9,11.3h0c-.4.4-1.3.8-1.3,1.2-.1,7.6-.1,15.2,0,22.9,0,.5,1,1.1,1.5,1.6l.7,5.9,1.2,3.4a1.1,1.1,0,0,0,.3.7c1.4,4.2,2.7,8.4,4.1,12.6A.7.7,0,0,0,928.5,796.1ZM1098,730.9l.9-1c1.3-2.1,2.3-4.6,4-6.2s4.7-6.3,3.6-10.6c2.2-6,4-11.9-.8-17.2-3.8,5.6-7.6,11.2-11.6,16.6-.8,1.1-3.3,2.2-3.9,1.8a79.3,79.3,0,0,1-7.1-7.1,51.1,51.1,0,0,0,5.5-4.8c3.7-4,8.3-7.5,8.6-13.7h.2c0-.2-.1-.4-.1-.6s-.1-1.2-.2-1.9c.9-3.9,2.8-8,2.4-11.7s-2.8-8.9-5-12.9c-5.1-9.2-8.3-9.9-18-5l-1.5.4-2-2c-2.2-2.9,1.6-3.8,1.9-5.8l2.5-1.5-16.2-15.3-8,6.3,3.8,5.4-7.9,4.4c5.5,3.6,10.1,6.8,14.9,9.6,2.1,1.2,4.7,1.6,7.1,2.3-7.3,6.5-9.6,15.2-10.1,24.5-.7,1.7-2.1,3.5-1.9,5.1,1.2,11,2.4,22.1,4.6,32.9a23.2,23.2,0,0,0,7.2,12.1c13,11.3,18.9,8.5,26.2-2.1Zm38.9-415.8-1.8-1.5,5.9-6.6c-4.4-3.8-8.8-8-13.6-11.7s-7.5-2.1-9.7,2c-3.1,5.8-5.8,11.9-8.6,17.9-3.4,3-3.5,0-4.1-2.2s-1.7-6.7-2.6-10.1c-.1-.6-.1-1.3-.2-1.9s.7-1.2.7-1.8l-.9-30.6c-.1-3,.2-6.1-.5-8.9s-2.4-3.1-3.7-4.6l-4.6,4.1h0l-1.2,1.5c-5,5.7-10.3,11.3-9.9,19.7-.7,4.5-2.6,9.2-1.7,13.4,3.8,17.5,8.5,34.8,12.7,52.2,1.4,5.8,3.4,11.9,2.7,17.6-1.3,10.1,3.4,15.9,11.3,20,2.5,1.4,5.8.9,8.8,1.3l.9-7.9,3.1-7c-.2-3.5-.5-7-.7-10.7L1135,372l.4.2-.4-.2c2.5,1,5.4,1.6,7.5,3.2s5.9,2.7,6.8-.2,1.7-8.2,2.5-12.3,1-6.9,2.2-10.1,0-4.9-2.9-6.6c-7.6-4.4-14.8-9.3-22.2-14,3.1-3.8,6.3-7.5,9.3-11.4,1-1.3,1.7-2.9,2.6-4.3ZM1024,421.9c.1-1,.1-2,.2-3l4.5-12.2c7.3-20.9,6.1-41-5.2-60.3-3.5-6.2-8-6.7-13.1-1.6-1.5,1.5-2.6,3.5-4.4,4.7s-3.9,2-5.4,1.4c-3.2-1.1-4.8,0-5.7,2.8-2,6.1-3.8,12.3-5.7,18.4L987,388.8c.3,21.6,4.6,36.1,26,43.2C1019.7,433.1,1023.9,429.3,1024,421.9ZM833.4,460.7h0c1,10.5,6.1,20.3,5,31.2-.3,2.3-.2,3.2-2.6,3.2-2.5-2.9-5.6-5.5-7.6-8.7-4.3-7-7-14.6-6.5-23.1.2-3.8-.5-7.6-.8-11.4a12.9,12.9,0,0,0-7.5-10.6c-5.2-2.6-7.7-1.7-9.3,3.9-.9,3.5-2.4,4.4-5.6,3a10.4,10.4,0,0,0-5.3-1.3c-1.6.1-4.2.9-4.5,2-3.7,11-7,22.1-10.4,33.2-.8,5.5-1.8,11-2.5,16.6-1.9,15.3,3,24.8,16.4,32,5.8,3.1,10.5,1.7,13.1-4.3,1.6-3.6,2.4-7.5,3.6-11.2s2.9-8.9,4.4-13.3c1,2,2,4,3.1,5.9,2.6,4.6,5.1,9.2,8,13.5.4.6,3.7,0,4.9-1a74.5,74.5,0,0,0,7.1-7.7c.8-1,2.2-2.7,1.8-3.2-2.7-4.7,2-6.9,2.6-10l6.4,1.6a17.3,17.3,0,0,0,3,1.6c2.8.8,5.8,1.3,8.7,1.9l1.5-9.2c3.3-1.9,3.7-4.8,2.8-8.1-1.8-6.2-3.9-12.3-5.4-18.5s-4.3-15-1.7-22.8c3.8-3.1,5.8-2.5,7.1,2.2a52.1,52.1,0,0,1,1,5.7c0,7.5-.2,15.1-.1,22.6.1,1.6,1.4,3.1,2.2,4.6v.3c-.8,4,1.3,5.5,4.9,5.6l2.7,2.2c-.2,6.2,5.6,4.2,8.5,5.5s6.1-1.1,6.6-5.4a61.7,61.7,0,0,1,2-9.5c1-4.2,1.1-8-3.1-10.6-1.9-6.5-4.4-12.9-5.5-19.6s-2.4-12.2.7-18.1c1.9,1,5.1,1.7,5.4,3,2.8,12.4,4.9,25,7.5,37.5,1,4.4,3,8.6,4.9,13.8,4.4-4.1,7.7-7.5,11.3-10.5s3.8-4.7,1.6-7.9c5.1-4.7,2.6-9.4.6-14.5a163.7,163.7,0,0,1-6.2-19.5c-2.1-7.9-3.4-15.9-5.3-23.8-1-4.2-7.5-9.5-11.3-9.5s-6.6,4.1-8.1,7.7c-2.6,6.1-4.8,12.3-7.4,19.1-1-2.8-1.3-5.8-2.8-7.6s-5.1-5-8.1-5.8-4.7,2.3-6.5,4.1a20.5,20.5,0,0,0-3.8,6.4c-2.2,5.5-4.2,11-6.3,16.8-2.8-6.1-5.4-11.9-8.3-18.1l-8,7.2c-3,2.6-4.5,5.6-2.1,9.5l-4.2,5.9A21.9,21.9,0,0,0,833.4,460.7Zm247.3-111.8c.6-.7,1.6-1.4,1.6-2a54.3,54.3,0,0,0-1.3-5.8c.3-1.9,1.6-4.3.9-5.5-2.7-4.7-6.1-9-9.2-13.5s-6.4-4-10.2-2.7c-9.1,3.1-21.6,16.2-20.7,27.3-1.2,5.5-3.4,11.1-3.4,16.6,0,7,1.8,14,2.9,21,1.7,11.2,7.7,18.9,18.4,23.2,5.1,2,9.3,1.4,12.3-3,5.1-7.1,9.8-14.5,14.4-21.9.9-1.5.5-3.7.8-5.6,2.9-5.6,3.7-11.2-.9-17.2-1.3,2.4-2.2,4.5-3.4,6.4-2.7,4.3-5.4,8.7-8.4,12.8-.7,1-2.8,2.1-3.7,1.7-4.2-1.6-8.5-3.8-9.4-8.7-1.6-8.3-2.7-16.7-4.1-25l2.1-2.3c2.3,4.8,4.5,9.1,6.9,14.1l5.1,1.4-1.8-1.7c1.6-.6,3.4-.9,4.5-1.9a75.6,75.6,0,0,0,5.8-6.9ZM688.1,583.2c10.4-2.4,16.7-8.9,19.3-19.2.7-1.5,1.4-3,2-4.5,3.5-9.2,5.5-18.7,4.7-28.6s-5.2-17.8-14.8-21.7c-4.1-1.7-8.5-2.8-12.7-4.5-7.3-3-14.6-6.1-21.7-9.5-1.1-.6-1.2-3.4-1.7-5.1,10.4-6.4,21.3-1.6,32.4-1.4.2-3.3.3-6.4.5-9.5.6-.6,1.8-1.3,1.8-1.9a125.1,125.1,0,0,0,.2-15c0-1.1-2-2.9-3.2-3-5.2-.7-10.6-1.5-15.8-1.1-12,.9-20,7.2-23.6,18.9-1.9,6.1-4.4,12.1-2.7,18.7-.9,1.3-2.4,2.4-2.5,3.7-1.3,19.9,4.8,28.9,21.7,33.7,10.3,3,20,7.8,30,11.8-1.1,5.6-5.1,7.8-10.1,8.1-8,.3-16,.1-24.5.1l-.6,8.2c-.7,1.1-1.8,2.1-1.9,3.2-.2,3,.1,6,0,9-.3,5.1,1.5,8.6,7,9.3,1.4.7,2.9,2.1,4.3,2C680.2,584.6,684.1,583.8,688.1,583.2Zm335.2,112.9c-3.4,2.7-3.4,5.9-1.6,9.7,4.2,9.1,8.5,18.1,11.9,27.4,4.9,13.2,8.8,26.8,13.5,40.1a78.8,78.8,0,0,0,6.8,14.4c2.3,4.1,5.2,4.1,7.5.1,1.6-2.5,1.9-5.8,2.7-8.7,4.5-5.5,5.1-14.1,1.2-21.1-8-14.2-15.8-28.4-19.3-44.5-1.2-5.4-1.5-10.9-2.2-16.4,6.6-2.6,6.6-2.6,4.7-9.7,4.5-4.2,4.7-6,.9-11.5l-10,3.6c.6-9,.2-17.2,2-24.9s-1.3-14.1-7.6-18.8-9.3-3.3-10.2,4.6c-3.5,8.3-3.4,17-2.6,25.7s1.7,16.2,2.5,24.3Zm-40.1-89.4v-.4H982a1,1,0,0,0-.1.3Zm-296-15.2c-.3-.1-.5-.3-.8-.3s-.3,0-.4.1.2.5.3.5A1.6,1.6,0,0,0,687.2,591.5Z" transform="translate(-619 -198)"/><path class="cls-4" d="M1291.6,548.9l-.6-27Z" transform="translate(-619 -198)"/><path class="cls-5" d="M1014.3,499.5c.1-.2.1-.4-.1-.5a20,20,0,0,0-1-2.1h0a17.4,17.4,0,0,0-1-1.9h0c-.6-1.7-1.2-3.5-1.9-5.2-.8-8.8-.1-17.3,6.2-24.3s16.6-10.6,26.5-6.5c6.9-9.5,16-15.1,28.2-11.7,8.7,2.3,15.3,7.6,18,16.8l2.3,4.3a.5.5,0,0,0-.1.7c.4.7.9,1.4,1.3,2.2l.3,1.4a28.6,28.6,0,0,0-.7,2.8,7.6,7.6,0,0,1-.1,1.5v4.3c0,.9.1,1.9.1,2.8V485l-.9,3.9c-1,5.1-2,10.3-2.9,15.3,6.3-5.4,12.3-11.4,19.1-16.2a26.4,26.4,0,0,1,28.4-1.5c9.7,5.3,14.2,14.5,12.4,25.7-.6,4.1.7,6.2,3.6,8.7,13,11.1,9.3,33.7-6.5,41.5-2.9,1.4-6.3,1.9-9.4,2.8-16.7,1.6-32.5-2.4-48.2-8.2,1.5,9,4.5,16.7,9.8,23.4,2.7,4.1,4.6,9.1,8.2,12.2s10.3,8.6,15.9,9.1c8.3.7,11.3,5.6,14.5,11.4-1,1-1.8,2.7-2.9,2.9-7.4,1.8-14.4-.8-20.2-4.6-8.1-5.4-15.4-12.2-23-18.4-5.1-8.8-10.2-17.5-15.4-26.2a11.8,11.8,0,0,0-1.8-2.1,14.7,14.7,0,0,0-2.1,2.2c-7.6,11.1-14.4,22.9-26.1,30.7s-25.2,8.6-37.5-.7c-.4-.8-.7-1.5-1.1-2.2-4-6.7-7.1-13.5-4.5-21.6a4.5,4.5,0,0,0-1.2-3.9c-2.5-2.9-5.4-5.5-8.2-8.2v-.2l-2.7-10-.6-2.8c.1-.7.1-1.4.2-2.2l.6-2.8.9-2.3,2.1-4.1.7-1c4.8-6.1,11.4-9.8,18.4-12.9h5.1c5.7.1,11.9,1.6,16-4.4l-4.9-2c-.4-.9-.7-1.8-1-2.6l-2.6-1.5-.5-1.3-4.8-4.1Z" transform="translate(-619 -198)"/><path class="cls-6" d="M944.1,589.1c-1.2,6.6-.4,9.1,5.4,11.7s12.1,4.2,18.2,6.3l17.3,6.1c5.6,3.1,11.3,6,16.7,9.4,3.7,2.3,6.6,5.5,6.3,10.4-2.6,1.3-5.1,3.4-7.9,3.9-16.6,2.9-33.3,5.5-50.1,8.1-15.1,2.3-30.2,4.2-45.3,6.5-8.9,1.3-17.1,4.6-23.4,11.2-8.7,9.2-17.3,18.6-25.7,28.2-5.1,5.8-9.8,12.1-14.6,18.1-12.7,15.2-25.1,30.5-38,45.4-9.4,10.8-19.4,21.2-29.2,31.5a54.2,54.2,0,0,1-9.1,7.5c-4.9,3.5-8,.8-8.5-7,1.4-6.5,2.7-12.9,4-19.3,1-3.4,1.9-6.7,2.9-10s3.7-8.1,5.6-12.1c3.7-10.8,7.3-21.6,11.2-32.3,5.7-15.8,12.9-31.2,14.6-48.2.6-6.3-.1-12.2-4.5-17.3l-4.1-5.4,11.6-.6c12.2-.8,13.6,2.4,17.9,12.8-.6.3-1.5.8-1.5,1,2,6.3-3,9.3-6.3,12.9s-6.4,6.8-10.3,10.8l9.8,1.2-8.4,5.7,6.6,3.1c-1.8,5.6-3.9,11-5.2,16.6a20,20,0,0,1-8.5,12.3c-4,2.8-7.7,6.1-12.1,9.7l8.1,2.1c-11.8,4.3-10.3,13-9.2,21.5l-6.1,7c-8.1,6.1-8.1,6.1-1.6,10.3l-6.3,7.8,1.2,1.5c2.2-1.1,4.7-2,6.6-3.6s4.4-4.8,6.6-7.2,5.7-1.5,7.8-3.1c4.4-3.7,3-8.7-3.2-13.1,2-8.1,7.6-13.1,14.6-16.9a7.7,7.7,0,0,0,11.1-6c.4-4.7-3.7-6.5-6-9.5a8.5,8.5,0,0,1,.4-2.3c4.5-12.4,9.2-24.6,13.5-37,.8-2.1,1.1-5.2.1-7.1-2.5-4.6-.8-7.7,2.3-10.9,3.3-1.2,7.4-1.7,9.8-4s2.7-5.9,4-9.2c1.3,2,2.5,4.3,4,6.5s4.2,3.8,7.6,1.5,7.7-4.4,11.4-6.8c1.7-1.2,4.5-3.8,4.1-4.5-2.5-5.3-5.7-10.3-8.6-15.4-.1-.2-.4-.3-.7-.5,5.2-4.6,5.3-4.6,8.7,1,1.5,2.5,3,5.1,4.3,7.8,2.3,4.4,4.7,5,9,2.2s5.4-3.8,8.3-5.4,6.8-3.4,10.2-5c4.4,2.5,9.1,4.7,13.2,7.6,5.7,4.1,11.1,1.5,17.6,1.1l-7-6.3c3.1-.8,5.1-1.7,7-1.7,4.6.1,9.3.5,13.9.8l30.6,2.1.3-1-13.3-5.1,16.4-1.4a35.2,35.2,0,0,0,1.5,4.2,8,8,0,0,0,10,3.5c2.9-1.2,4.8-6.5,3.7-9.8-1.7-5.2-9.8-7.2-14.5-.8-7.2-1.1-14.4-2.2-21.6-3.1a5.3,5.3,0,0,0-4.2,1.3c-2.2,3.5-5.1,3.1-8.6,3-6.4,0-13.4-4.2-19.4,1.9-.6.7-2.5.1-3.8,0L885,622.8c-.9-3.2-4.8-5.8-1.9-9.7a36.9,36.9,0,0,0,5.8.4l18.8-.6c3.8,2.9,7.1.2,10.5-1.1,8.5-.9,18,2.5,25.3-6.2l-8,1-.9-1-.6-2.1c1.5-1.7,2.2-2.9.5-5.4s-1.7-5.7-2.5-8.7l13.5-9,.9,1C945.7,583.9,944.9,586.5,944.1,589.1ZM837.2,684.6c10.2-3.6,10.9-4,10.2-11-.3-2.2-4-6-5.2-5.7-3.2.8-7.7-.3-9.7,3.9C829.7,677.6,832.8,681.2,837.2,684.6ZM817,693.5c-2.4,4.6-5.9,9.4-.1,13.7,2.1,1.6,5.6,1.4,8.4,1.9C829.2,695,827.9,692.8,817,693.5Z" transform="translate(-619 -198)"/><path class="cls-2" d="M910.6,361.3c-2.4-3.8-1.4-6.7,2-9.4s6.7-5.9,10.8-9.7l6.5,19.6c1.5-6.1,2.7-11.2,4-16.2,3.4-12.9,10.4-15.8,21.8-9.2s16.7,21.4,10.6,37.5l-9,13.7c-1.6,2.4-1.7,4.5.9,6.2a123.4,123.4,0,0,0,31.7,23.4c1.4.7,2.1,3.1,3,4.6l-3.6,5.8c-.9,1.7-1.9,3.3-2.6,5s-2.2,3.4-4.7,2.6l-.2-.2-1.9-1.8a158.1,158.1,0,0,1-36.2-32.6c.5-2.7.4-5.7,1.6-8.2s4.5-7.6,6.8-11.4c4.8-7.7,1.9-15-.9-22.2-2.1-5.3-5.5-7.6-9.4-5.6s-2.4,5.9-1.7,9.3c-5.7,13.8-3.2,27.3,1.8,40.7l3.3,13.8c1.7,8.2,3.5,16.4,5.2,24.6.4,2.3,1.2,4.7,1,6.9s-1.7,3.2-2.7,4.9c-12-1.2-20.1-9.5-20.8-21.4-.5-9-1.1-18-1.6-27C924.6,389.2,917.6,375.2,910.6,361.3Z" transform="translate(-619 -198)"/><path class="cls-2" d="M883.2,431.4c-3.1,5.9-1.7,12.2-.7,18.1s3.6,13.1,5.5,19.6c.4,2,1.2,4.2.9,6.1s-1.6,4.8-2.5,7.1c-12.3-1.9-18.3-9.1-18.5-21.4a128.7,128.7,0,0,0-1.6-19.7c-.5-2.8-2.8-5.2-4.3-7.7-1.9,2.5-4.1,4.8-5.7,7.5s-.2,3.2-.2,4.9c-2.6,7.8-.2,15.3,1.7,22.8s3.6,12.3,5.4,18.5c.9,3.3.5,6.2-2.8,8.1H855L842.7,485c-.3-4.4-1.2-8.9-.9-13.3.7-12.5-6.1-22.2-11.5-32.4-2.4-3.9-.9-6.9,2.1-9.5l8-7.2c2.9,6.2,5.5,12,8.3,18.1,2.1-5.8,4.1-11.3,6.3-16.8a20.5,20.5,0,0,1,3.8-6.4c1.8-1.8,4.7-4.5,6.5-4.1s5.9,3.3,8.1,5.8,1.8,4.8,2.8,7.6c2.6-6.8,4.8-13,7.4-19.1,1.5-3.6,3.3-7.6,8.1-7.7s10.3,5.3,11.3,9.5c1.9,7.9,3.2,15.9,5.3,23.8a163.7,163.7,0,0,0,6.2,19.5c2,5.1,4.5,9.8-.6,14.5a36,36,0,0,0-5.4,3.1c-4.4,3.8-5.7,3.8-7.2-1.8-3.6-13.5-6.8-27.1-10.2-40.5-.6-2.2-2-4.1-2.9-6.1a42,42,0,0,0-4.9,5.5C882.7,428.4,883.2,430.1,883.2,431.4Z" transform="translate(-619 -198)"/><path class="cls-2" d="M708.2,455.2c1-3.8,1.3-8,3.2-11.2s6.4-8.1,9.8-11.9a3.9,3.9,0,0,1,3.4-1.3c.8.3,1.2,2.1,1.5,3.3a15,15,0,0,1,0,3,229.4,229.4,0,0,0,3.9,51.6c.3,1.3,1.3,2.5,2.5,4.9,2.3-6.3,4-11.2,5.9-16.1a16.2,16.2,0,0,1,3.3-5.5c2.4-2.1,5.5-5.3,8.1-5.1a11,11,0,0,1,10.1,8.4c1.8,6.9,3.4,13.8,5.1,20.8.9,3.7,2,7.3,3,11s2.7,10.1,4.7,14.9,1.8,8.1-2,11.4l-9.9,7.5c-2.3-6.3-5-11.6-6.3-17.2-2.3-9.8-3.9-19.8-5.3-29.8-.5-3.7-1.7-5.9-6.6-6.8l-2.7,12.8c-3.2,7-1.6,14.1-.1,21s4,13.4,5.7,20.1c.8,3,2.5,6.7-2.3,8.3-7.5.6-11.9-4.8-17-8.7l-.3-1.6c-.4-2.4-1.2-4.9-1-7.3.6-7.8-1.1-15.2-3.7-22.4a100.6,100.6,0,0,1-3.4-11.9C714.5,483.4,711.4,469.3,708.2,455.2Z" transform="translate(-619 -198)"/><path class="cls-2" d="M652.8,495.8c-1.7-6.6.8-12.6,2.7-18.7,3.6-11.7,11.6-18,23.6-18.9,5.2-.4,10.6.4,15.8,1.1,1.2.1,3.2,1.9,3.2,3a125.1,125.1,0,0,1-.2,15c0,.6-1.2,1.3-1.8,1.9-8.2-.7-16.4-2-24.5-1.8-6.5.2-10.4,7-8.4,12.7.5,1.7.6,4.5,1.7,5.1,7.1,3.4,14.4,6.5,21.7,9.5,4.2,1.7,8.6,2.8,12.7,4.5,9.6,3.9,14.1,11.5,14.8,21.7s-1.2,19.4-4.7,28.6c-.6,1.5-1.3,3-2,4.5l-3.5,2.3c-3.6,2.1-7,5.4-10.9,6-6.4,1.1-13.1.8-19.7.4-3.4-.2-6.2-2.1-5.5-6.6.2-1.4-.7-3.1-1-4.7l.6-8.2c8.5,0,16.5.2,24.5-.1,5-.3,9-2.5,10.1-8.1,3.2-3.5,3.2-10.4-.3-11.7-8.6-3.5-17.1-7.3-25.9-9.9C659.3,518.7,653.8,512.6,652.8,495.8Z" transform="translate(-619 -198)"/><path class="cls-2" d="M1119.9,370c-1,2.3-2,4.7-3.1,7-1.3-.6-2.6-1.3-3.9-1.8-7.7-3-16.1-9.6-14.2-20,.7-4.2-.1-9-1.2-13.2-1.8-7.7-4.6-15.2-6.5-22.9-3.2-12.8-6-25.8-8.9-38.7-.4-8.4,4.9-14,9.9-19.7l1.2-1.5h0l5.6-2.8c.5,3.3,1,6,1.2,8.6.8,12,1.5,24,2.2,36,.1.6.1,1.3.2,1.9,1,7.2,2.1,14.3,3.1,21.4h1.6c.7-3.1,1.3-6.1,2-9.1,2.8-6,5.5-12.1,8.6-17.9,2.2-4.1,6.1-4.7,9.7-2s9.2,7.9,13.6,11.7l-5.9,6.6c-3.5,3.4-6.9,6.9-5.9,12.5l-.3,5.9c7.4,4.7,14.6,9.6,22.2,14,2.9,1.7,4.1,3.1,2.9,6.6s-1.5,6.7-2.2,10.1l-1.2.6c-1.8-.3-3.8-.2-5.3-1-6-3.5-11.8-7.1-17.7-10.8s-8.9-8.8-8.8-15.7l3.2-11.5,2.4-9.4-1.5-.5c-5.7,3.4-9.7,8.1-10.8,15s-.6,11.5.5,17C1114.4,354.4,1117.4,362.1,1119.9,370Z" transform="translate(-619 -198)"/><path class="cls-2" d="M778.3,482.1c3.4-11.1,6.7-22.2,10.4-33.2.3-1.1,2.9-1.9,4.5-2a10.4,10.4,0,0,1,5.3,1.3c3.2,1.4,4.7.5,5.6-3,1.6-5.6,4.1-6.5,9.3-3.9a12.9,12.9,0,0,1,7.5,10.6c.3,3.8,1,7.6.8,11.4-.5,8.5,2.2,16.1,6.5,23.1,2,3.2,5.1,5.8,7.7,8.7s2.8,5.9-.8,8.5c-.7.5-.9,1.6-1.3,2.5s-1.7.4-2.2.9c-2.1,2.5-4.1,2.5-6.1,0a30.7,30.7,0,0,1-2.7-3.6c-2.7-4-5.2-8-7.8-12.1l-1.7.4v10.2c-1.5,4.4-3,8.9-4.4,13.3s-5.9,7.2-11.7,6c-8.4-1.8-17.9-12.5-18.3-21.2C778.6,494,778.5,488.1,778.3,482.1Zm27.7,7c.8-3.8,2.9-7.8,2.3-11.4-1.3-7.4-4-14.5-6.1-21.9-3.2,2.6-5.1,5.7-4.4,9.9-4.4,11.2-2.1,22.5,0,33.7.3,1.4,2.7,2.4,4.1,3.6.9-1.3,2.3-2.4,2.6-3.7C805.3,496,805.5,492.5,806,489.1Z" transform="translate(-619 -198)"/><path class="cls-2" d="M972.9,736.8l7.8-32.1c1.1-4.3,3.9-5,7.5-3.4s7.9,2.1,9.1-4.1c.6-3.3,3.4-3.6,6.3-2.2,5.8,2.7,8.7,7.5,9.3,13.7.3,2.6.2,5.3.5,7.9,1.8,16.8,2.9,19,17.1,36.9l-4,7.5c-.8-.1-2.1-.5-2.3-.2-3.5,4.1-5.4,1-7.4-1.5s-2.5-3.9-3.7-5.8l-5-8.2-1.1.4c-.3,3.4-.6,6.8-1,10.2l-5,17c-2.8,1-6.3,3.4-8.3,2.5-9.2-3.9-17.2-9.4-18.8-20.5Zm19-15.1c-1,1.3-2.9,2.6-2.8,3.9.6,9,1.3,18,2.5,27,.2,1.7,2.4,3.2,3.6,4.8l1.5-.6,1.5-6a34.6,34.6,0,0,0,2-22.2c-1.3-6.3-6.1-11.8-4.7-18.8H995C990.8,715.3,990.8,715.3,991.9,721.7Z" transform="translate(-619 -198)"/><path class="cls-2" d="M1023.6,640.4c.9-7.9,3.9-9.3,10.2-4.6s9.6,10.1,7.6,18.8-1.4,15.9-2,24.9l10-3.6c3.8,5.5,3.6,7.3-.9,11.5-2.3.8-5.9,1.1-6.5,2.5s1.1,4.7,1.8,7.2c.7,5.5,1,11,2.2,16.4,3.5,16.1,11.3,30.3,19.3,44.5,3.9,7,3.3,15.6-1.2,21.1l-4.6,2.8c-1.2-1.4-2.7-2.5-3.3-3.9-3.3-7.6-6.7-15.2-9.4-23-4-11.5-7.1-23.3-11.4-34.5-3.3-8.5-8-16.3-12.1-24.4.1-1.9.1-3.8.2-5.7a13.6,13.6,0,0,0,3.2-10.8C1025.3,666.6,1024.6,653.4,1023.6,640.4Z" transform="translate(-619 -198)"/><path class="cls-7" d="M1175,398.1l1.1-1,1.9-1.9h.2l1.9-1.8.2-.2,7.7-7.1,1.1-.9,1-.7.3-.3.7-.6.4-.3,2.8-2.6c.1-.2.2-.3.4-.3,1.8,3.4-.3,13-3.7,16.2-.9-.1-2.1.3-2.8-.2-4-3-6.1,0-7.9,2.7s-.8,3.2-1.1,5c3.5-.6,3.8,1.5,3.8,4.4a71.8,71.8,0,0,0,1,10.3c.2,1,1.5,1.8,1.6,2,1.3-5,2.5-9.6,3.6-14.1.4,1.2.7,2.3,1,3.5-3.1,8.3-1.7,11.3,5.8,12.8l-3.2,1.4h-6.6c3,3.4,6.7,5.3,9.7,7.9s3.2,4.5,4.7,6.8l-.6,2.2,13.9-5.4-.5-1.4-5.7.7,6.6-5.2h5.7l13.7,2.6c-2.3,1.5-3.3,2.5-4.5,2.9-19,6.7-38.1,13.5-57.3,20-3.3,1.1-7.1.6-10.7.9s-5.3-.8-6.3-2.2c-1.8-3-4.4-3-7.1-3.4l3.2-1.3c-.5-.8-.8-1.5-1.2-2.1l-2-1.3V445l-1.8-1.4c0-.4-.1-.9-.1-1.3,0-3.7-2.1-.4-3-.9v-1.2c-.1-3.4-.1-6.8-.1-10.2,5.3-11.1,16.2-16.7,24.5-24.9l1.9-1.8.2-.2,1.9-1.7.2-.2Zm2.2,6.5c-4,2-7.7,2.7-9.5,7.4s-3.3,9.9-8.7,9.6-6.9,2.9-6.2,7.7-.9,5.2-3.8,5.6c.4.8.8,2,1.4,3.6l3.1-3.3c5.6-6.1,10.5-13.2,17-17.9C1175.4,413.8,1176.9,410.4,1177.2,404.6Zm-14.7,47c4-1.3,9.4,1.3,11.4-2.7-.9-1.7-1.5-2.9-2.2-4-2.4-3.5-4.5-1.8-6.2.6S1163.6,449.5,1162.5,451.6Zm18.8-6.9c.2.4.3.9.5,1.3l12.3-2.8v-2.1c-2.5-1.2-5.5-3.8-7.3-3.1S1183.1,442.3,1181.3,444.7Z" transform="translate(-619 -198)"/><path class="cls-2" d="M989.2,372.1c1.9-6.1,3.7-12.3,5.7-18.4.9-2.8,2.5-3.9,5.7-2.8,1.5.6,3.9-.4,5.4-1.4s2.9-3.2,4.4-4.7c5.1-5.1,9.6-4.6,13.1,1.6,11.3,19.3,12.5,39.4,5.2,60.3l-4.5,12.2c-2.3.7-4.6,2.2-6.9,2.1s-7.5-1.4-11.3-2.1h.1L999,413c-6.5-6.7-7.6-15.5-9.1-24.1C989.6,383.3,989.4,377.7,989.2,372.1Zm23.7,33h0l2.6,2.2a5.8,5.8,0,0,0,1.7-2.1,19.5,19.5,0,0,0,.8-4.2c6.2-14.7-.2-32.4-8.4-42.9-.5-.6-4,.1-4.1.6a54.4,54.4,0,0,0-.3,8.1c-.3.8-.9,1.5-.9,2.2a66.8,66.8,0,0,0,6.6,32.3Z" transform="translate(-619 -198)"/><path class="cls-2" d="M1075,656.9l1.5-.4c9.7-4.9,12.9-4.2,18,5,2.2,4,4.4,8.4,5,12.9s-1.5,7.8-2.4,11.7l-16.7,15.4c-2.2,2.1-1.1,4.3,2.7,5.7a79.3,79.3,0,0,0,7.1,7.1c.6.4,3.1-.7,3.9-1.8,4-5.4,7.8-11,11.6-16.6,4.8,5.3,3,11.2.8,17.2l-7.5,11.8a14.5,14.5,0,0,0-2.9,1.9c-4.7,5.4-7.9,6.6-13.9,4s-12.7-7.4-15.1-14.8a163.9,163.9,0,0,1-4-16.8c-1-4.7-1.5-9.6-2.1-14.4.5-9.3,2.8-18,10.1-24.5Zm7.3,31.1c.7-.4,1.7-.6,1.9-1.2,2.4-6.3,0-11.7-3.1-17-.7-1.1-2.9-2.6-3.6-2.3a6.3,6.3,0,0,0-3.1,3.9c-.4,1.8.5,3.8.9,5.7.3,5.2.6,10.4.8,15.7C1080.4,693.2,1081.7,691.1,1082.3,688Z" transform="translate(-619 -198)"/><path class="cls-2" d="M1057.3,347c1.4,8.3,2.5,16.7,4.1,25,.9,4.9,5.2,7.1,9.4,8.7.9.4,3-.7,3.7-1.7,3-4.1,5.7-8.5,8.4-12.8,1.2-1.9,2.1-4,3.4-6.4,4.6,6,3.8,11.6.9,17.2s-5.8,8.7-9.1,12.9c-5.6,7.2-7.3,9.8-13.8,7.8-9.4-2.9-17.3-8.3-19-18.8s-2.4-21.5-3.5-32.2,11.6-24.2,20.7-27.3c3.8-1.3,7.6-1.1,10.2,2.7s6.5,8.8,9.2,13.5c.7,1.2-.6,3.6-.9,5.5l-2.5,2.1a13.9,13.9,0,0,0-2.1,1.1c-4.6,3.8-4.5,3.8-7.8-1.5s-5.3-7.7-8.1-11.7c-4.8,2.6-5.4,6-3.5,10.2Z" transform="translate(-619 -198)"/><path class="cls-2" d="M962.8,737l-.9,2.9-4,3.3c-3.7,2.5-7.2,3.9-9.6-1.6-.1-.4-.8-.4-1.3-.6h.1l-3.1-4.9-4.5-4.6a61.2,61.2,0,0,0-2.2,6.9c-.2.7.9,1.6,1.4,2.4.2,4.3,0,8.5.6,12.7.9,5.9,1.6,12,3.8,17.4,1.4,3.5,5.2,6.1,8.2,8.6.7.5,3.7-.7,4.4-1.8,3-4.7,5.6-9.7,8.4-14.6l3.2-3.6c1,4.8,1.9,8.6,2.7,12.5-.4,1.2-.7,2.5-1.1,3.7l-2,1.5c-2.1,3.3-3.9,6.9-6.4,9.9s-5.2,11.2-13.1,10-18-9.6-19.3-17.5c-1.9-11.6-2.9-23.3-4.3-35l3.9-13.6a1.3,1.3,0,0,0,.4-.9c4.4-3.4,8.5-7.3,13.2-10.2s8.4-1.5,11.6,2.9S959.5,732.2,962.8,737Z" transform="translate(-619 -198)"/><path class="cls-8" d="M1023.3,696.1c4.1,8.1,8.8,15.9,12.1,24.4,4.3,11.2,7.4,23,11.4,34.5,2.7,7.8,6.1,15.4,9.4,23,.6,1.4,2.1,2.5,3.3,3.9l4.6-2.8c-.8,2.9-1.1,6.2-2.7,8.7-2.3,4-5.2,4-7.5-.1a78.8,78.8,0,0,1-6.8-14.4c-4.7-13.3-8.6-26.9-13.5-40.1-3.4-9.3-7.7-18.3-11.9-27.4C1019.9,702,1019.9,698.8,1023.3,696.1Z" transform="translate(-619 -198)"/><path class="cls-8" d="M1082.1,280.4c2.9,12.9,5.7,25.9,8.9,38.7,1.9,7.7,4.7,15.2,6.5,22.9,1.1,4.2,1.9,9,1.2,13.2-1.9,10.4,6.5,17,14.2,20,1.3.5,2.6,1.2,3.9,1.8l-.9,7.9c-3-.4-6.3.1-8.8-1.3-7.9-4.1-12.6-9.9-11.3-20,.7-5.7-1.3-11.8-2.7-17.6-4.2-17.4-8.9-34.7-12.7-52.2C1079.5,289.6,1081.4,284.9,1082.1,280.4Z" transform="translate(-619 -198)"/><path class="cls-8" d="M652.8,495.8c1,16.8,6.5,22.9,23,27.6,8.8,2.6,17.3,6.4,25.9,9.9,3.5,1.3,3.5,8.2.3,11.7-10-4-19.7-8.8-30-11.8-16.9-4.8-23-13.8-21.7-33.7C650.4,498.2,651.9,497.1,652.8,495.8Z" transform="translate(-619 -198)"/><path class="cls-8" d="M1041.8,346.7c1.1,10.7,1.7,21.5,3.5,32.2s9.6,15.9,19,18.8c6.5,2,8.2-.6,13.8-7.8,3.3-4.2,6.1-8.6,9.1-12.9-.3,1.9.1,4.1-.8,5.6-4.6,7.4-9.3,14.8-14.4,21.9-3,4.4-7.2,5-12.3,3-10.7-4.3-16.7-12-18.4-23.2-1.1-7-2.9-14-2.9-21C1038.4,357.8,1040.6,352.2,1041.8,346.7Z" transform="translate(-619 -198)"/><path class="cls-8" d="M927.9,432c.7,11.9,8.8,20.2,20.8,21.4v.4l-1.2,9.3c-3.4-.8-7-1.1-10.2-2.5s-4.9-3.7-7.3-5.7l-1.7-1.9-.8-1.6-.6-1.4c-.1-.5-.3-1-.4-1.6s-.3-.9-.4-1.4v-.2a.6.6,0,0,0-.1-.7l-.3-1.9c-.5-8-1.1-16.1-1.6-24.2-.5-15.9-7.3-30-13.5-44.3a36.8,36.8,0,0,0-2.3-4.9c-2.7-4.1-1.7-7.1,2.3-9.5,7,13.9,14,27.9,15.7,43.7C926.8,414,927.4,423,927.9,432Z" transform="translate(-619 -198)"/><path class="cls-4" d="M664.8,613.2c-3.1-.8-6.4-1.2-9.2-2.6-4.6-2.1-5.9-5.9-4-11.2,19.5-6.6,40.4-5.9,61.8-9.3l-12.9-3.3v-1.4c1.4-.1,3-.5,4.3-.2,5.7,1.1,11.3,2.6,17,3.7a23.4,23.4,0,0,0,5.9-.3l8.7-1.6c2.7-.4,5.8.7,7.5-3.2.4-1,4.6-.8,6.9-.5,8.6,1.3,17,1,25.3-2,2-.6,4.3,0,6.5-.3l14-2.3c.7-.1,1.4-.6,1.9-.5,8.1,1.8,15.5-1.5,23.2-2.9,9.3-1.6,18.7-2.9,28.1-4.4l.3.3c-3.7,1.3-7.3,3.1-11.1,3.8-8.9,1.8-18,3.3-27,4.4-47.2,6.1-94.4,11.9-141.6,17.9a86.2,86.2,0,0,0-14,3.3c-1.5.4-3.6,2.1-3.7,3.4s1.7,3.1,3.1,4a80.4,80.4,0,0,0,9.2,4.8Z" transform="translate(-619 -198)"/><path class="cls-8" d="M943.7,400.6a158.1,158.1,0,0,0,36.2,32.6l1.9,1.8.2.2,4.3,2.9-2.4,6.9h0l-8-1.8-18.7-15.7c-4.1-3.4-8-6.9-12-10.4l-3.3-13.8Z" transform="translate(-619 -198)"/><path class="cls-8" d="M923.8,744.6c1.4,11.7,2.4,23.4,4.3,35,1.3,7.9,11.4,16.3,19.3,17.5s9.5-5.7,13.1-10,4.3-6.6,6.4-9.9c-.8,3.2-1.5,6.4-2.3,9.5l.3.3-.3-.3L954.1,803c-5.7,5.3-8.1,5.9-14.9,1.9-3.8-2.2-6.9-5.4-10.3-8.2v-.4l-.4-.2a.7.7,0,0,1-.5-.4c-1.4-4.2-2.7-8.4-4.1-12.6a1.1,1.1,0,0,1-.3-.7l-1.2-3.4c-.2-2-.4-3.9-.7-5.9,0-8.6-.1-17.1-.2-25.7h0Z" transform="translate(-619 -198)"/><path class="cls-8" d="M1061,684.8c.6,4.8,1.1,9.7,2.1,14.4a163.9,163.9,0,0,0,4,16.8c2.4,7.4,8.3,11.8,15.1,14.8s9.2,1.4,13.9-4a14.5,14.5,0,0,1,2.9-1.9c-.1,1.7-.1,3.3-.1,5l-.9,1-.9,1.9c-7.3,10.6-13.2,13.4-26.2,2.1a23.2,23.2,0,0,1-7.2-12.1c-2.2-10.8-3.4-21.9-4.6-32.9C1058.9,688.3,1060.3,686.5,1061,684.8Z" transform="translate(-619 -198)"/><path class="cls-4" d="M841,709c4.8-6,9.5-12.3,14.6-18.1,8.4-9.6,17-19,25.7-28.2,6.3-6.6,14.5-9.9,23.4-11.2,15.1-2.3,30.2-4.2,45.3-6.5,16.8-2.6,33.5-5.2,50.1-8.1,2.8-.5,5.3-2.6,7.9-3.9.3,4-1,6.1-5.6,6.1s-6.9,1.4-10.4,2.2l-8.5,1.7-24.9,3.8c-1.2.2-2.3,0-3.5.2-7.5,1.2-14.9,2.6-22.4,3.7-2.4.4-5-.3-7.3.1-8.7,1.3-17.3,2.8-25.9,4.6s-12.6,6-18,10.9a80.3,80.3,0,0,0-13.2,14.1c-2.5,3.7-6.5,6.4-9.5,9.8-4.5,5.1-8.7,10.5-13.2,15.6C844.4,707.2,842.5,708,841,709Z" transform="translate(-619 -198)"/><path class="cls-8" d="M883.2,431.4c0-1.3-.5-3,.1-3.9a42,42,0,0,1,4.9-5.5c.9,2,2.3,3.9,2.9,6.1,3.4,13.4,6.6,27,10.2,40.5,1.5,5.6,2.8,5.6,7.2,1.8a36,36,0,0,1,5.4-3.1c2.2,3.2,1.4,5.5-1.6,7.9s-6.9,6.4-11.3,10.5c-1.9-5.2-3.9-9.4-4.9-13.8-2.6-12.5-4.7-25.1-7.5-37.5C888.3,433.1,885.1,432.4,883.2,431.4Z" transform="translate(-619 -198)"/><path class="cls-8" d="M708.2,455.2c3.2,14.1,6.3,28.2,9.6,42.2a100.6,100.6,0,0,0,3.4,11.9c2.6,7.2,4.3,14.6,3.7,22.4-.2,2.4.6,4.9,1,7.3l-3.7,3c1.2-15.6-6.8-29.3-9.7-44-2.3-11.9-4.9-23.8-6.9-35.9C705.3,460,707.3,457.5,708.2,455.2Z" transform="translate(-619 -198)"/><path class="cls-8" d="M739.9,499.9l2.7-12.8c4.9.9,6.1,3.1,6.6,6.8,1.4,10,3,20,5.3,29.8,1.3,5.6,4,10.9,6.3,17.2l9.9-7.5,1.3,5.3-13.4,11.9-2.3-4c-3.4-15-6.7-30.1-10.2-45.1-.3-1.3-1.4-3.1-2.3-3.2S741.2,499.3,739.9,499.9Z" transform="translate(-619 -198)"/><path class="cls-4" d="M1014.3,499.5l4.7,7.2-60.7,34.6L917,565.4l-2.7-1.3c.6-.9,1-2,1.8-2.5l10.9-6.5,7.9-4.1-15.2-1.9c3.6-.1,7.3-.5,10.9,0,7,.9,12.3-2.7,17.9-5.9,10.7-6.2,21.4-12.1,32.2-18.1l30.6-16.9C1014.9,506.2,1016.6,503.5,1014.3,499.5Z" transform="translate(-619 -198)"/><path class="cls-8" d="M666.8,561.4c.3,1.6,1.2,3.3,1,4.7-.7,4.5,2.1,6.4,5.5,6.6,6.6.4,13.3.7,19.7-.4,3.9-.6,7.3-3.9,10.9-6l3.5-2.3c-2.6,10.3-8.9,16.8-19.3,19.2l-16.2-.3c-5.5-.7-7.3-4.2-7-9.3.1-3-.2-6,0-9C665,563.5,666.1,562.5,666.8,561.4Z" transform="translate(-619 -198)"/><path class="cls-8" d="M778.3,482.1c.2,6,.3,11.9.6,17.9.4,8.7,9.9,19.4,18.3,21.2,5.8,1.2,9-1.6,11.7-6-1.2,3.7-2,7.6-3.6,11.2-2.6,6-7.3,7.4-13.1,4.3-13.4-7.2-18.3-16.7-16.4-32C776.5,493.1,777.5,487.6,778.3,482.1ZM802,526h-.9l-9.7-1.1-.3,2c1.4,2.9,3.8,2.9,6.7,1.3a33.7,33.7,0,0,0,3.1-2.1v2.6h.7c.1-.9.3-1.8.4-2.7l1.3-.4-.2-.3A4.1,4.1,0,0,0,802,526Z" transform="translate(-619 -198)"/><path class="cls-4" d="M785.9,641.8l4.1,5.4c-2.4,3.3-3.2,6.4.5,9.5s.7,4.2-2.1,6.4c-.9-5.8-1.2-11.2-2.6-16.3s-6.3-5-10-5.6c-9.7-1.8-19.7-2.4-29.4-4.4s-18.5-5.2-27.8-7.6-19-4.1-28.4-6.3c-4.7-1.2-9.3-3-13.9-4.4a22.4,22.4,0,0,0-6.1-1.4c-3,.1-4.7-1.1-5.4-3.9l.3-.4,2,.4c29.4,10,59.8,15.9,90.1,22.2C766.8,637.3,776.3,639.7,785.9,641.8Z" transform="translate(-619 -198)"/><path class="cls-9" d="M1091.3,488.9l.9-3.9,3.6-1.9-.4-.8-3.1,1.6c0-.9-.1-1.9-.1-2.9l4.8-1c2.4,3.5,3.4-.3,5-1l5-3,1-1,4-2,3-2h.4a.6.6,0,0,0,.1-.4,1.2,1.2,0,0,1-.5.5l-3,2-4,2a9.4,9.4,0,0,1-1,1l-5,3h-3c1-1.1,1.7-2.4,2.9-3.2,5-3.4,10.1-6.6,15.1-9.8h0l9-3v1l-1,1-2,1-3,2-2.6,1,.5.7,2.1-1.7,3-2a12.4,12.4,0,0,1,2-1,9.4,9.4,0,0,1,1-1l1.2-.3-1.2-.7,8-7h0l9.1-4.8-.5-.8-3.6.6v-2h0l2-1h0l1.6-.6,2.1-.7.9.9-1.6,2.1h2.2l1.1,1.1c-.9,1.9-1.8,3.8-2.6,5.7l-25.6,15.9c-7.9,5-15.7,10.1-23.6,15A29.6,29.6,0,0,1,1091.3,488.9Z" transform="translate(-619 -198)"/><path class="cls-8" d="M856.1,445.9c0-1.7-.5-3.7.2-4.9s3.8-5,5.7-7.5c1.5,2.5,3.8,4.9,4.3,7.7a128.7,128.7,0,0,1,1.6,19.7c.2,12.3,6.2,19.5,18.5,21.4-.3,3-.5,5.9-.8,8.9l-9.8-1.4a13.4,13.4,0,0,1-1.8-.7l-2.7-2.2-4.9-5.6V481c-.2-4.1-.3-8.3-.6-12.4s-1-9.9-1.5-14.8a52.1,52.1,0,0,0-1-5.7C861.9,443.4,859.9,442.8,856.1,445.9Zm16.3,32.8c1.1,8.3,4.5,11.4,10.2,10.2a3.4,3.4,0,0,0,2.2-1.5,2.4,2.4,0,0,0-.8-2.1Z" transform="translate(-619 -198)"/><path class="cls-8" d="M973.9,754.9c1.6,11.1,9.6,16.6,18.8,20.5,2,.9,5.5-1.5,8.3-2.5-.5,1.9-.8,3.8-1.4,5.7-1.8,5.3-6.6,7.8-11.5,5.4s-6.6-4.2-9.7-6.4c-5.7-4.1-6.7-10.6-8.4-16.7l.9-15Z" transform="translate(-619 -198)"/><path class="cls-7" d="M989.9,388.9c1.5,8.6,2.6,17.4,9.1,24.1,1,3.7,2.7,6.4,7.1,5.9h-.1c5.7,6.5,7.7,7.2,13.6,4.6l.6,2.9L1013,432c-21.4-7.1-25.7-21.6-26-43.2Z" transform="translate(-619 -198)"/><path class="cls-4" d="M944.1,589.1c.8-2.6,1.6-5.2,2.3-7.7l-.9-1-13.5,9-3.7-3.1L934,582h0c1.5-.5,3.2-.7,4.5-1.5l26.4-15.8c8.1-4.7,16.3-9.2,24.5-13.9l2.7,10c-3.9-4.9-6.4-5-11.5-1.5s-12.9,8-19.4,11.8-11.2,6.8-13.6,13.6C947,586.3,945.3,587.6,944.1,589.1Z" transform="translate(-619 -198)"/><path class="cls-8" d="M855,495.3h5.4l-1.5,9.2c-2.9-.6-5.9-1.1-8.7-1.9a17.3,17.3,0,0,1-3-1.6c-6.7-4.5-8.9-10.8-8.2-18.6a32.4,32.4,0,0,0-5.6-21.7h0c-2.4-5.2-4.9-10.4-7.3-15.5l4.2-5.9c5.4,10.2,12.2,19.9,11.5,32.4-.3,4.4.6,8.9.9,13.3-.9.7-2.6,1.7-2.5,2.1a39.2,39.2,0,0,0,3.4,7.9c.5.8,2.3.9,4.1,1.5,1.8,5.6,7.6,8,12,3.9ZM837.8,465l2-.6-2.4-7-1.8.6Z" transform="translate(-619 -198)"/><path class="cls-4" d="M1119.9,370c-2.5-7.9-5.5-15.6-7.3-23.6-1.1-5.5-.4-11.3-.5-17l9.9-5.1c-1.1,3.8-2.1,7.6-3.2,11.5-3.3,3.7-4,13.8-.4,18.5,7.3,9.7,17.8,14.9,29.3,19.6l2.9-10.6,1.2-.6c-.8,4.1-1.3,8.3-2.5,12.3s-4,2.4-6.8.2-5-2.2-7.5-3.2h0l-15.8-12.7C1119.4,363,1119.7,366.5,1119.9,370Z" transform="translate(-619 -198)"/><path class="cls-9" d="M1142.8,440.2v1.2l-3.1,2.8L1137,446h0l-1,1h0l-4,2h0l-2,1h0l-7,2c.3-.7.7-1.3,1-2l.4-.2v-.2l-.5.4-7,4-2,1-1,1-4,2-3,2-2,1-4,2-1,1-6.6,2.8.6,1.2,6-4,1-1,4-2,2-1,3-2,4-2,1-1,2-1,6-2v2h0l-7,4h0l-7,4h0l-5,3h0l-4,3h0l-7.3,3.1c-.4-.8-.9-1.5-1.3-2.2l.3-.3-.2-.4-2.3-4.3c2.5-.6,5.2-.7,7.4-1.9,13.2-7.4,26.3-15.1,39.5-22.7ZM1132,445l1.2-.7-1.2.7-1,1-3,2-1.4.3.3.4,1.1-.7,3-2A4.7,4.7,0,0,1,1132,445Z" transform="translate(-619 -198)"/><path class="cls-8" d="M1057,341.3c-1.9-4.2-1.3-7.6,3.5-10.2,2.8,4,5.6,7.8,8.1,11.7s3.2,5.3,7.8,1.5a13.9,13.9,0,0,1,2.1-1.1c.8,1.9,1.5,3.8,2.2,5.7l-.8.8-10.9,8.2c-2.7-4.3-4.9-8.1-7.5-11.8A33.7,33.7,0,0,0,1057,341.3Z" transform="translate(-619 -198)"/><path class="cls-8" d="M1006,755.9c.4-3.4.7-6.8,1-10.2l1.1-.4,5,8.2c1.2,1.9,2.3,4,3.7,5.8s3.9,5.6,7.4,1.5c.2-.3,1.5.1,2.3.2s1.5,3,1,3.5a56.8,56.8,0,0,1-7.5,8c-.6.5-2.7,0-3.6-.7a49.3,49.3,0,0,1-4.2-4.9Z" transform="translate(-619 -198)"/><path class="cls-8" d="M813.3,501.9V491.7l1.7-.4c2.6,4.1,5.1,8.1,7.8,12.1a30.7,30.7,0,0,0,2.7,3.6c2,2.5,4,2.5,6.1,0,.5-.5,1.5-.6,2.2-.9.9,1.5,3.7,2.3,1.2,4.8s-5.4,6.1-8.7,9.9l-9.9-13C815.3,505.9,814.3,503.9,813.3,501.9Z" transform="translate(-619 -198)"/><path class="cls-2" d="M1057,644l-3.8-5.4,8-6.3,16.2,15.3-2.5,1.5c-3.6,2.1-6.7,0-10-1.1h.1l-1.1-2.1h.1l-1.2-.7-2.8-.5-3.2-.2A1.4,1.4,0,0,1,1057,644Z" transform="translate(-619 -198)"/><path class="cls-4" d="M1097.6,580.4c-5.3-6.7-8.3-14.4-9.8-23.4,15.7,5.8,31.5,9.8,48.2,8.2-5.6,1.2-11.2,3.8-16.7,3.3s-13.9-3.5-20.8-5.6a42.2,42.2,0,0,1-4.5-1.8c-3.6,5.4-.4,9.5,1.9,13.9A24.3,24.3,0,0,1,1097.6,580.4Z" transform="translate(-619 -198)"/><path class="cls-4" d="M1006,755.9l6.2,11-5.8-6.5c-3.9,9.3-2.4,21.5-11.8,28-2.8-.6-5-.5-6.5-1.6-5.1-3.7-10.1-7.9-15-11.9C972,774,971,773,970,772c-.8-3.9-1.7-7.7-2.7-12.5l-3.2,3.6c-.4-7.3,3.4-2.8,5.9-2.2,1.7,6.1,2.7,12.6,8.4,16.7,3.1,2.2,6.2,4.7,9.7,6.4s9.7-.1,11.5-5.4c.6-1.9.9-3.8,1.4-5.7C1002.7,767.3,1004.4,761.6,1006,755.9Z" transform="translate(-619 -198)"/><path class="cls-4" d="M816.4,507.8l9.9,13c3.3-3.8,5.8-7,8.7-9.9s-.3-3.3-1.2-4.8.6-2,1.3-2.5c3.6-2.6,3.2-5.4.8-8.5,2.3,0,2.2-.9,2.5-3.2,1.1-10.9-4-20.7-5-31.2a32.4,32.4,0,0,1,5.6,21.7c-.7,7.8,1.5,14.1,8.2,18.6l-6.4-1.6c-.6,3.1-5.3,5.3-2.6,10,.4.5-1,2.2-1.8,3.2a74.5,74.5,0,0,1-7.1,7.7c-1.2,1-4.5,1.6-4.9,1C821.5,517,819,512.4,816.4,507.8Z" transform="translate(-619 -198)"/><path class="cls-8" d="M1023.6,640.4c1,13,1.7,26.2,3.1,39.2a13.6,13.6,0,0,1-3.2,10.8c-.8-8.1-1.7-16.2-2.5-24.3S1020.1,648.7,1023.6,640.4Z" transform="translate(-619 -198)"/><path class="cls-8" d="M663.2,490.1c-2-5.7,1.9-12.5,8.4-12.7,8.1-.2,16.3,1.1,24.5,1.8-.2,3.1-.3,6.2-.5,9.5C684.5,488.5,673.6,483.7,663.2,490.1Zm26.6-9.9c-3.1.3-6.9,1.7-7.9.6-3-3.2-6.2-1.6-9.1-1.6-4.5-.1-7.7,3.8-6.9,7.3,6.4-1.8,12.6-2.7,19.1,0,2.2,1,5.2.5,7.8.2.8-.1,1.3-1.9,2-2.9l-.9-.8-3.6,1.6Z" transform="translate(-619 -198)"/><path class="cls-7" d="M938.7,740.8c-.5-.8-1.6-1.7-1.4-2.4a61.2,61.2,0,0,1,2.2-6.9l4.5,4.6c0,2.2-.3,4.7,3.1,4.9H947c1.4,3.9,1.8,8.8,8,8-.3,1.3-.7,2.7-1,4l-6.9,2.9Z" transform="translate(-619 -198)"/><path class="cls-8" d="M919.7,549.1l15.2,1.9-7.9,4.1c-.7-2.6-.7-2.5-2.6-2a3.3,3.3,0,0,1-2.4-.3c-3.2-2-6.3-4.4-9.6-6.2A62.4,62.4,0,0,0,904,543v-1.5c-2.5-5.1-7.4-6.1-12.1-2.4l-5.9,5.9h-4.8l1-1.9.8-.6c12.6-9.5,15.5-9.4,27.7.6C913.4,545.4,916.7,547.1,919.7,549.1Z" transform="translate(-619 -198)"/><path class="cls-8" d="M1060,644.9l2.8.5,1.2.7h-.1l1.1,2.1h-.1l6.4,6.8-6.7-3.2-5.6-3-1.3,2.3a83.3,83.3,0,0,0,9.9,5.9c.7.4,2.5-1.2,3.8-2h1.6l2,2-3.9,3.4c-2.4-.7-5-1.1-7.1-2.3-4.8-2.8-9.4-6-14.9-9.6l7.9-4.4a1.4,1.4,0,0,0-.2.7,27.7,27.7,0,0,0,1,2.6Z" transform="translate(-619 -198)"/><path class="cls-4" d="M1090.1,593c7.6,6.2,14.9,13,23,18.4,5.8,3.8,12.8,6.4,20.2,4.6,1.1-.2,1.9-1.9,2.9-2.9l3.3.3.8,1.5c-2.3,1.4-4.4,3.7-6.8,3.9-7.6.6-15-.2-21.5-5.5s-12.3-8.2-18.1-12.8C1091.9,598.9,1091.4,595.5,1090.1,593Z" transform="translate(-619 -198)"/><path class="cls-7" d="M722.2,542l3.7-3,.3,1.6c-.5,3.4,0,6,4.3,6.8,2.1.4,4.1,1.8,5.9,3.1a50.7,50.7,0,0,1,5.5,4.9l-6.5,2.6H735l-11.1-9-1.1-3h0c-.1-.4-.3-.8-.4-1.1Z" transform="translate(-619 -198)"/><path class="cls-4" d="M756.3,546.6l2.3,4L772,538.7l-1.3-5.3c3.8-3.3,3.9-6.9,2-11.4s-3.2-9.9-4.7-14.9c2.7,1.8,4.3,3.9,4.2,7.6s1.4,5.7,2.4,8.5c.4,1.2,1.8,2.5,1.6,3.6-.4,3.1-2.4,6.2-2,9.2s-.7,5.8-4.3,7.5-4.1,3.8-5.5,6.2-3.7,4.4-6.3,2.9S756.8,548.7,756.3,546.6Z" transform="translate(-619 -198)"/><path class="cls-8" d="M1083.1,707.2c-3.8-1.4-4.9-3.6-2.7-5.7l16.7-15.4c.1.7.1,1.3.2,1.9a.5.5,0,0,0-.1.7c-.3,6.2-4.9,9.7-8.6,13.7A51.1,51.1,0,0,1,1083.1,707.2Z" transform="translate(-619 -198)"/><path class="cls-4" d="M962.8,737c-3.3-4.8-6.5-9.5-9.9-14.2s-6.9-5.7-11.6-2.9-8.8,6.8-13.2,10.2c2.1-3,3.9-6.2,6.3-8.8s3.8-2.3,5.8-3.4c4.5-2.7,10.7-2.2,13.6,2.2S959.8,731.3,962.8,737Z" transform="translate(-619 -198)"/><path class="cls-4" d="M882.1,543.1l-1,1.9c-5.8,5.9-11.3,12-17.5,17.4-4,3.5-8.9,5.9-13.4,8.8l-.3-.3c3.4-3,6.9-5.8,10.1-8.9,5.2-4.8,10.1-10,15.4-14.8C877.3,545.5,879.9,544.4,882.1,543.1Z" transform="translate(-619 -198)"/><path class="cls-4" d="M992.2,561c2.8,2.7,5.7,5.3,8.2,8.2a4.5,4.5,0,0,1,1.2,3.9c-2.6,8.1.5,14.9,4.5,21.6.4.7.7,1.4,1.1,2.2s-2.3,0-2.3-.3c-1.6-5.5-7.3-9.3-5.9-15.9a12.2,12.2,0,0,0-.1-5.4c-.6-2.3-2-4.4-3.1-6.6Z" transform="translate(-619 -198)"/><path class="cls-4" d="M874,489.1a13.4,13.4,0,0,0,1.8.7l9.8,1.4c.3-3,.5-5.9.8-8.9s2.2-4.6,2.5-7.1-.5-4.1-.9-6.1c4.2,2.6,4.1,6.4,3.1,10.6a61.7,61.7,0,0,0-2,9.5c-.5,4.3-3,7.2-6.6,5.4S873.8,495.3,874,489.1Z" transform="translate(-619 -198)"/><path class="cls-4" d="M1102.2,301c-.7-12-1.4-24-2.2-36-.2-2.6-.7-5.3-1.2-8.6l-5.6,2.8,4.6-4.1c1.3,1.5,3.3,2.8,3.7,4.6s.4,5.9.5,8.9l.9,30.6C1102.9,299.8,1102.4,300.4,1102.2,301Z" transform="translate(-619 -198)"/><path class="cls-4" d="M947.1,755.9,954,753l5.1-3.9-1.2-5.9,4-3.3c2.1,5.5.5,10.6-4.1,13.5a37.8,37.8,0,0,0-5.4,4.3c-1.3.9-2.5,2-3.7,3C948.2,759.1,947.6,757.5,947.1,755.9Z" transform="translate(-619 -198)"/><path class="cls-8" d="M735,558.1h.4l6.5-2.6a50.7,50.7,0,0,0-5.5-4.9c-1.8-1.3-3.8-2.7-5.9-3.1-4.3-.8-4.8-3.4-4.3-6.8,5.1,3.9,9.5,9.3,17,8.7a9.9,9.9,0,0,1,.3,2.4c-.3,2.4,0,6-1.2,6.7S737.5,558.3,735,558.1Z" transform="translate(-619 -198)"/><path class="cls-4" d="M1057,341.3a33.7,33.7,0,0,1,4.5,4.8c2.6,3.7,4.8,7.5,7.5,11.8l10.9-8.2a75.6,75.6,0,0,1-5.8,6.9c-1.1,1-2.9,1.3-4.5,1.9l1.8,1.7-5.1-1.4c-2.4-5-4.6-9.3-6.9-14.1l-2.1,2.3Z" transform="translate(-619 -198)"/><path class="cls-8" d="M958.2,393.8c-2.6-1.7-2.5-3.8-.9-6.2l9-13.7c-1.9,5.1-3.7,10.2-5.6,15.2C960,390.7,959,392.3,958.2,393.8Z" transform="translate(-619 -198)"/><path class="cls-8" d="M1043.8,697.1c-.7-2.5-2.4-5.3-1.8-7.2s4.2-1.7,6.5-2.5C1050.4,694.5,1050.4,694.5,1043.8,697.1Z" transform="translate(-619 -198)"/><path class="cls-10" d="M1144.7,456.6c.8-1.9,1.7-3.8,2.6-5.6h.3l.2-.2c2.7.4,5.3.4,7.1,3.4,1,1.4,4.1,1.5,6.3,2.2a101.4,101.4,0,0,1-10.6,1.7C1148.6,458.2,1146.6,457.1,1144.7,456.6Z" transform="translate(-619 -198)"/><path class="cls-9" d="M1191,396.5c3.4-3.2,5.5-12.8,3.7-16.2a27.3,27.3,0,0,1,2.3-2.5l1.2.6-6.3,27.1c-.6,1.6-1.1,3.1-1.7,4.6-.3-1.2-.6-2.3-1-3.5Z" transform="translate(-619 -198)"/><path class="cls-9" d="M1192.8,424.3l3.2-1.4,3.9.2h.1l14.1,4,5.9,2.9h-5.7Z" transform="translate(-619 -198)"/><path class="cls-8" d="M1020.2,426.4l-.6-2.9c-5.9,2.6-7.9,1.9-13.6-4.6,3.8.7,7.5,1.9,11.3,2.1s4.6-1.4,6.9-2.1c-.1,1-.1,2-.2,3Z" transform="translate(-619 -198)"/><path class="cls-8" d="M1129.2,326.1c-1-5.6,2.4-9.1,5.9-12.5l1.8,1.5c-.1,1.4.5,3.3-.2,4.1C1134.5,321.7,1131.7,323.8,1129.2,326.1Z" transform="translate(-619 -198)"/><path class="cls-9" d="M1098.9,729.9c0-1.7,0-3.3.1-5l7.5-11.8c1.1,4.3-.4,7.6-3.6,10.6S1100.2,727.8,1098.9,729.9Z" transform="translate(-619 -198)"/><path class="cls-10" d="M1142.8,440.2l-6.7-.9c1.2-2,2.3-4,3.6-5.8a34.4,34.4,0,0,1,3-3.5C1142.7,433.4,1142.7,436.8,1142.8,440.2Z" transform="translate(-619 -198)"/><path class="cls-4" d="M760.2,767.1c-1.3,6.4-2.6,12.8-4,19.3l-2.4-16.6,1.5-.2c.3,1.5.7,3,1.1,4.6Z" transform="translate(-619 -198)"/><path class="cls-4" d="M1109.1,315.2c-.7,3-1.3,6-2,9.1h-1.6c-1-7.1-2.1-14.2-3.1-21.4.9,3.4,1.7,6.8,2.6,10.1S1105.7,318.2,1109.1,315.2Z" transform="translate(-619 -198)"/><path class="cls-4" d="M1199.9,423.1l-3.9-.2c-7.5-1.5-8.9-4.5-5.8-12.8.6-1.5,1.1-3,1.7-4.6-.3,2.5-.7,4.9-.8,7.3a58.5,58.5,0,0,0,.7,7.2l1.1-1Z" transform="translate(-619 -198)"/><path class="cls-4" d="M983.9,445l2.4-6.9,3-10.5,3.6-5.8c-1.6,5.8-3.1,11.6-5,17.2C987.1,441.2,985.3,443,983.9,445Z" transform="translate(-619 -198)"/><path class="cls-4" d="M985,613.2l-17.3-6.1L976,605h0c-.2,2.3.1,3.7,3.1,4.2S983.1,611.8,985,613.2Z" transform="translate(-619 -198)"/><path class="cls-4" d="M1129.2,326.1c2.5-2.3,5.3-4.4,7.5-6.9.7-.8.1-2.7.2-4.1l3.9,1.2c-.9,1.4-1.6,3-2.6,4.3-3,3.9-6.2,7.6-9.3,11.4Z" transform="translate(-619 -198)"/><path class="cls-4" d="M864.2,453.8c.5,4.9,1.1,9.9,1.5,14.8s.4,8.3.6,12.4c-.8-1.5-2.1-3-2.2-4.6C864,468.9,864.2,461.3,864.2,453.8Z" transform="translate(-619 -198)"/><path class="cls-4" d="M954.1,803l10.5-16.3C965,791.6,958.5,801.6,954.1,803Z" transform="translate(-619 -198)"/><path class="cls-4" d="M975.9,443.1l8,1.8c-1.2,2.8-2.5,5.5-4.3,9.4Z" transform="translate(-619 -198)"/><path class="cls-4" d="M768.7,745c-1.9,4-3.7,8.1-5.6,12.1-.8-2.3-2-4.4-2.4-6.8a9.5,9.5,0,0,1,1-6.3l.7,4.6,1.3.7L766,745h2.7Z" transform="translate(-619 -198)"/><path class="cls-9" d="M989.9,388.9H987c.7-5.5,1.4-11.1,2.2-16.7C989.4,377.7,989.6,383.3,989.9,388.9Z" transform="translate(-619 -198)"/><path class="cls-9" d="M973.9,754.9l-3-9c.7-3,1.3-6.1,2-9.1C973.2,742.8,973.5,748.9,973.9,754.9Z" transform="translate(-619 -198)"/><path class="cls-4" d="M1020.2,426.4l3.8-4.5c-.1,7.4-4.3,11.2-11,10.1Z" transform="translate(-619 -198)"/><path class="cls-4" d="M923.8,744.6l-2.3,2.7c.6-3.8.8-7.7,1.9-11.3.6-2,2.8-3.4,4.3-5Z" transform="translate(-619 -198)"/><path class="cls-4" d="M826.1,445.2c2.4,5.1,4.9,10.3,7.3,15.5A21.9,21.9,0,0,1,826.1,445.2Z" transform="translate(-619 -198)"/><path class="cls-4" d="M921.5,747.4c.1,8.6.2,17.1.2,25.7-.5-.5-1.5-1.1-1.5-1.6-.1-7.7-.1-15.3,0-22.9C920.2,748.2,921.1,747.8,921.5,747.4Z" transform="translate(-619 -198)"/><path class="cls-4" d="M1071.3,654.8l-6.4-6.8c3.3,1.1,6.4,3.2,10,1.1-.3,2-4.1,2.9-1.9,5.8h-1.7Z" transform="translate(-619 -198)"/><path class="cls-4" d="M671.9,582.9l16.2.3c-4,.6-7.9,1.4-11.9,1.7C674.8,585,673.3,583.6,671.9,582.9Z" transform="translate(-619 -198)"/><path class="cls-9" d="M924.1,420c.5,8.1,1.1,16.2,1.6,24.2C925.2,436.2,924.6,428.1,924.1,420Z" transform="translate(-619 -198)"/><path class="cls-4" d="M1214.1,427.1l-14.1-4C1205.2,422.6,1210,423.5,1214.1,427.1Z" transform="translate(-619 -198)"/><path class="cls-9" d="M1188,386l-7.7,7.1Z" transform="translate(-619 -198)"/><path class="cls-9" d="M923.9,783.1c1.4,4.2,2.7,8.4,4.1,12.6C926.6,791.5,925.3,787.3,923.9,783.1Z" transform="translate(-619 -198)"/><path class="cls-4" d="M976,605c2.7-3.9,6.1-1.1,9.2-1.8,0,.6.1,1.2.1,1.8Z" transform="translate(-619 -198)"/><path class="cls-4" d="M964.6,786.7c.8-3.1,1.5-6.3,2.3-9.5l2-1.5c-.3,2.4-.3,4.9-1.1,7.2S965.7,785.5,964.6,786.7Z" transform="translate(-619 -198)"/><path class="cls-4" d="M1080.7,348.9c-.7-1.9-1.4-3.8-2.2-5.7l2.5-2.1a54.3,54.3,0,0,1,1.3,5.8C1082.3,347.5,1081.3,348.2,1080.7,348.9Z" transform="translate(-619 -198)"/><path class="cls-4" d="M866.4,481.3l4.9,5.6C867.7,486.8,865.6,485.3,866.4,481.3Z" transform="translate(-619 -198)"/><path class="cls-9" d="M1175,398.1l-3.6,3.1Z" transform="translate(-619 -198)"/><path class="cls-4" d="M766,745l-2-2.9,1.4-.6.6,3.5Z" transform="translate(-619 -198)"/><path class="cls-4" d="M1010.3,489.6c.7,1.7,1.3,3.5,1.9,5.2C1011.6,493.1,1011,491.3,1010.3,489.6Z" transform="translate(-619 -198)"/><path class="cls-9" d="M1194.3,380.6l-2.8,2.6Z" transform="translate(-619 -198)"/><path class="cls-9" d="M928.3,453l1.7,1.9Z" transform="translate(-619 -198)"/><path class="cls-9" d="M1097.1,732.8l.9-1.9Z" transform="translate(-619 -198)"/><path class="cls-9" d="M1178,395.2l-1.9,1.9Z" transform="translate(-619 -198)"/><path class="cls-9" d="M922.4,779l1.2,3.4Z" transform="translate(-619 -198)"/><path class="cls-4" d="M983.2,606.7h-1.3a1,1,0,0,1,.1-.3h1.2Z" transform="translate(-619 -198)"/><path class="cls-9" d="M1171.2,401.4l-1.9,1.7Z" transform="translate(-619 -198)"/><path class="cls-9" d="M1180.1,393.3l-1.9,1.8Z" transform="translate(-619 -198)"/><path class="cls-8" d="M722.8,546.1l1.1,3Z" transform="translate(-619 -198)"/><path class="cls-4" d="M687.2,591.5a1.6,1.6,0,0,1-.9.3c-.1,0-.2-.3-.3-.5s.3-.2.4-.1S686.9,591.4,687.2,591.5Z" transform="translate(-619 -198)"/><path class="cls-9" d="M1169.1,403.3l-1.9,1.8Z" transform="translate(-619 -198)"/><path class="cls-9" d="M926.9,450l.6,1.4Z" transform="translate(-619 -198)"/><path class="cls-4" d="M1093.2,259.2l-1.2,1.5Z" transform="translate(-619 -198)"/><path class="cls-4" d="M1013.2,496.9a20,20,0,0,1,1,2.1A20,20,0,0,0,1013.2,496.9Z" transform="translate(-619 -198)"/><path class="cls-4" d="M1012.2,494.9a17.4,17.4,0,0,1,1,1.9A17.4,17.4,0,0,0,1012.2,494.9Z" transform="translate(-619 -198)"/><path class="cls-9" d="M926,446.1a.6.6,0,0,1,.1.7c-.1-.2-.3-.3-.3-.5S925.9,446.1,926,446.1Z" transform="translate(-619 -198)"/><path class="cls-8" d="M722.4,545.1c.1.3.3.7.4,1.1S722.5,545.4,722.4,545.1Z" transform="translate(-619 -198)"/><path class="cls-2" d="M1097.2,688.7a.5.5,0,0,1,.1-.7c0,.2.1.4.1.6Z" transform="translate(-619 -198)"/><path class="cls-4" d="M1135,372l.4.2-.4-.2Z" transform="translate(-619 -198)"/><path class="cls-9" d="M926.1,447c.1.5.3.9.4,1.4S926.2,447.5,926.1,447Z" transform="translate(-619 -198)"/><path class="cls-9" d="M1190.1,384.4l-1,.7Z" transform="translate(-619 -198)"/><path class="cls-9" d="M1191.1,383.5l-.7.6Z" transform="translate(-619 -198)"/><polygon class="cls-9" points="309.5 598.1 309.9 598.3 309.9 598.7 309.5 598.5 309.5 598.1"/><path class="cls-9" d="M917,565.4l41.3-24.1,60.7-34.6,4.8,4.1-72.6,42.1c-6.2,3.6-12.8,6.7-19.2,10.1a18.2,18.2,0,0,1,3.4-3.4c22.6-13.2,45.2-26.2,67.8-39.3l12.5-7.4a4.8,4.8,0,0,0-4,.5l-38.6,22q-27.9,15.9-56,31.6Z" transform="translate(-619 -198)"/><path class="cls-9" d="M1011.7,522.7c-7,3.1-13.6,6.8-18.4,12.9-1.3,0-2.9-.6-3.8-.1l-68.1,39.6a10.6,10.6,0,0,1-.4-1.9L987.5,534c12.3-7.2,24.5-14.6,36.8-21.9l2.6,1.5Z" transform="translate(-619 -198)"/><path class="cls-4" d="M1024.3,512.1c-12.3,7.3-24.5,14.7-36.8,21.9L921,573.2l-1.8-2.2,12.8-8h0c6.4-3.4,13-6.5,19.2-10.1l72.6-42.1A6.9,6.9,0,0,0,1024.3,512.1Z" transform="translate(-619 -198)"/><path class="cls-4" d="M921.4,575.1l68.1-39.6c.9-.5,2.5.1,3.8.1a3.6,3.6,0,0,1-.7,1c-5,2.8-10.2,5.3-15.2,8.3-7.5,4.5-14.9,9.4-22.4,14.1h0c-.9.3-1.9.4-2.8.8-9.7,5.8-19.4,11.6-29.2,17.3Z" transform="translate(-619 -198)"/><path class="cls-4" d="M990.5,540.7a20.9,20.9,0,0,0-.8,2.3l-1.5.4q-28.2,16.8-56.3,33.7c-1.2.6-2,1.9-2.9,2.9h0l-3,1-1.8-.2c1.1-1.3,1.9-3,3.3-3.8,8.3-5.1,16.8-10,25.1-15.1,1-.6,1.6-1.9,2.4-2.9h0c1.5-.3,3.2-.4,4.4-1.1,4.5-2.5,8.8-5.3,13.3-7.8Z" transform="translate(-619 -198)"/><path class="cls-4" d="M989,545.8c-.1.8-.1,1.5-.2,2.2L935,580.4c-.5.3-.7,1-1,1.6h0l-6,2.9-1.6-2.6L929,580h0c5.9-3.1,11.9-6,17.7-9.3C960.9,562.5,974.9,554.1,989,545.8Z" transform="translate(-619 -198)"/><path class="cls-9" d="M989,545.8c-14.1,8.3-28.1,16.7-42.3,24.9-5.8,3.3-11.8,6.2-17.7,9.3.9-1,1.7-2.3,2.9-2.9q28.1-17,56.3-33.7l1.5-.4A28.6,28.6,0,0,0,989,545.8Z" transform="translate(-619 -198)"/><path class="cls-9" d="M934,582c.3-.6.5-1.3,1-1.6L988.8,548l.6,2.8c-8.2,4.7-16.4,9.2-24.5,13.9l-26.4,15.8C937.2,581.3,935.5,581.5,934,582Z" transform="translate(-619 -198)"/><path class="cls-9" d="M1092.3,475.3a28.6,28.6,0,0,1,.7-2.8l7-4.5h0l4-3h0l5-3h0l7-4h0l7-4h0l7-4h0l2-1h0l4-2h0l1-1h0l2.8-1.2h2.2l-.3,1.7-.7,1.4h0l-2,1h0l-5,3h0l-2,1h0l-5,3h0l-2,1h0l-2,1h0l-6,4h0l-6,3h0l-2,1h0l-2,2h0l-2,1h0l-6,3h0Z" transform="translate(-619 -198)"/><path class="cls-9" d="M1092.3,479.3a21.8,21.8,0,0,0-.1-2.5l6.8-4.8h0l6-3h0l2-1h0l2-2h0l2-1h0l6-3h0l6-4h0l2-1h0l2-1h0l5-3h0l2-1h3l-3,4h0l-17,10h0a34.1,34.1,0,0,0-5,1.9C1105.4,471.6,1098.9,475.5,1092.3,479.3Z" transform="translate(-619 -198)"/><path class="cls-9" d="M990.5,540.7l-17.8,9.4c-4.5,2.5-8.8,5.3-13.3,7.8-1.2.7-2.9.8-4.4,1.1,7.5-4.7,14.9-9.6,22.4-14.1,5-3,10.2-5.5,15.2-8.3Z" transform="translate(-619 -198)"/><path class="cls-4" d="M1092.3,479.3c6.6-3.8,13.1-7.7,19.7-11.4a34.1,34.1,0,0,1,5-1.9c-5,3.2-10.1,6.4-15.1,9.8-1.2.8-1.9,2.1-2.9,3.2h0l-2,1h0l-4.8,1A9.1,9.1,0,0,0,1092.3,479.3Z" transform="translate(-619 -198)"/><path class="cls-4" d="M1011.7,522.7l15.2-9.1c.3.8.6,1.7,1,2.6l-6,3.8c-1.7,1-3.4,1.8-5.1,2.6Z" transform="translate(-619 -198)"/><path class="cls-9" d="M1016.8,522.6c1.7-.8,3.4-1.6,5.1-2.6l6-3.8,4.9,2C1028.7,524.2,1022.5,522.7,1016.8,522.6Z" transform="translate(-619 -198)"/><path class="cls-4" d="M1099,472l-6.8,4.8a7.6,7.6,0,0,0,.1-1.5Z" transform="translate(-619 -198)"/><path class="cls-4" d="M1100,468l-7,4.5-.3-1.4Z" transform="translate(-619 -198)"/><path class="cls-4" d="M1092.3,483.9l3.1-1.6.4.8-3.6,1.9A4.1,4.1,0,0,1,1092.3,483.9Z" transform="translate(-619 -198)"/><path class="cls-4" d="M1091.5,468.2l.2.4-.3.3A.5.5,0,0,1,1091.5,468.2Z" transform="translate(-619 -198)"/><path class="cls-7" d="M926.4,582.3l1.6,2.6.3,1.4,3.7,3.1c.8,3,.9,6.3,2.5,8.7s1,3.7-.5,5.4l-15.8,8.3c-3.4,1.3-6.7,4-10.5,1.1l-3.7-6.2a34.6,34.6,0,0,0-3.2-6c-.7-.8-2.9-1.5-3.6-1-3.2,2.1-6.2,4.7-9.2,7a58.7,58.7,0,0,0-6.3,2.4c-1.3.7-2.2,2.1-3.3,3.2l4.7.8c-2.9,3.9,1,6.5,1.9,9.7s2.6,5.9,6.5,6.2c-3.4,1.6-6.9,3.2-10.2,5s-5.5,3.6-8.3,5.4-6.7,2.2-9-2.2c-1.3-2.7-2.8-5.3-4.3-7.8-3.4-5.6-3.5-5.6-8.7-1,.3.2.6.3.7.5,2.9,5.1,6.1,10.1,8.6,15.4.4.7-2.4,3.3-4.1,4.5-3.7,2.4-7.8,4.3-11.4,6.8s-5.6,1.2-7.6-1.5-2.7-4.5-4-6.5c-1.3,3.3-1.8,7.2-4,9.2s-6.5,2.8-9.8,4l-4-6.8c-4.3-10.4-5.7-13.6-17.9-12.8l-11.6.6c-9.6-2.1-19.1-4.5-28.7-6.4-30.3-6.3-60.7-12.2-90.1-22.2l-2-.4a80.4,80.4,0,0,1-9.2-4.8c-1.4-.9-3.1-2.7-3.1-4s2.2-3,3.7-3.4a86.2,86.2,0,0,1,14-3.3c47.2-6,94.4-11.8,141.6-17.9,9-1.1,18.1-2.6,27-4.4,3.8-.7,7.4-2.5,11.1-3.8,4.5-2.9,9.4-5.3,13.4-8.8,6.2-5.4,11.7-11.5,17.5-17.4h4.8c-.1,3-.6,6-.3,8.9.3,5.3-1.8,9.1-5.6,12.7a104.4,104.4,0,0,0-11.4,12.5,14.9,14.9,0,0,0-2.5,7.5c-.2,3.7,2,3.9,4.4,1.8a85.3,85.3,0,0,0,9.8-9.2c2.2-2.7,3.7-6,5.3-9.2,2.7-5.4,4.8-11.2,8.1-16.3s6.8-7.2,10.3-10.7a62.4,62.4,0,0,1,8.4,3.6c3.3,1.8,6.4,4.2,9.6,6.2a3.3,3.3,0,0,0,2.4.3c1.9-.5,1.9-.6,2.6,2l-10.9,6.5c-.8.5-1.2,1.6-1.8,2.5l2.7,1.3c0,.6.1,1.1.1,1.6l.9,2.5,1.2,1.5,1.8,2.2a10.6,10.6,0,0,0,.4,1.9l1.6,2,1.2,3.7,1.8.2A6.5,6.5,0,0,0,926.4,582.3Zm-12.7-3.4v-1.6l-2.1-2.1-.6-1c-.6-1.1-1.1-2.3-2.2-4.4s-1.4-3.9-2.4-7l-16.7,9.8c2.9,3.5,5.3,6.5,7.8,9.4h.6c1.4,3.4,2.9,6.7,4.2,10.2s3.7,3.7,6,1.8,3.8-4.1,3.5-5.8-3.1-4.2-4.7-6.3v-.3l-2.1-3.5c.2-1.7.5-3.3.8-4.8l3.6,1.9a6.6,6.6,0,0,1-.1,1.4l2.1,2.5a3.9,3.9,0,0,1,1,.8c-.1.9-.2,1.8-.4,2.8l3.9-1.4Zm-96.9,55.3c1.9-2.7.8-3.5-2-3.2l-.2-1v-1.2l1-.6-1.3-.9c-1.2-2.3-2.5-4.5-4-7.1l-5.1,3.4,8.1,6.5-2.7,1.8h2.8l.9,3.7.7,1.1,2.2,3.3.9.8,2.1,3.4.2,1.1c.3,1.2.7,2.4,1.2,4.5,2-2.6,6.6-3.1,2.3-6.4l-.8-1.2-1.4-3-1.6-1-2.1-3.3Zm37.4-22,1.5,2.6,8.3,12.6.8-.6.8-.7c-.1,0-.3.1-.4,0a3.5,3.5,0,0,1-1.3-.5c-.3-.3-.7-.9-.6-1.3,1.2-6-3.6-8.5-7-11.8l2.3-1.1-2.2-.3-.5-3.6-3.4-5.6-2.7-5.5-4.3,3c-.6.7-1.1,1.5-1.6,2.2l5.3,2.6,3.3,5.8Zm9.1-5.1v1.5l3.1,2.5.4,1c-.3,1.1-.5,2.3-.9,4.5l5.5-3.4-5.4-7-2.3-3.3h-.7c1.1-3.4-.4-4.6-2.3-4.3-.6-2.3-1.1-4.6-1.8-7.5l-5,3c.7,1.3,1.1,3.1,1.7,3.2,3.5.3,1.1,6.8,5.9,5.6l.2,1.1C860.1,606.2,860.4,607.4,863.3,607.1Zm-18.8,20.1-.6-.7-2-1.2-2.2-3.2v-1.7l-3.1-1.8v-1.4c1-3,.2-4-2.9-2.9l-.2-1.2v-5.9l-13.1,8.1,4.9,2.5.2,1.2c.5,1.2,1.1,2.4,1.6,3.7l.7,1,1.3,3.1,1.2,1,2.1,3.2.4,1.2c.5,1.1,1,2.1,1.4,3.2l1,1.5,1.9,2.9,1.1,1c-.4,2.3,0,3.8,2.7,2.3s6.2-3.7,9.8-6l-3-2.1a6.1,6.1,0,0,1-.5-1.2c-.5-1.1-1-2.1-1.4-3.2l-1-1.3v-2Zm66.7-22.3v2c1.2.4,2.8,1.4,3.6.9a121.9,121.9,0,0,0,12-7.1c1.2-.8,2-2.2,3-3.3l-3.8-.7-3.7-5.8c-5.6.3-2.8,3.9-3.2,6.1l-3.9-2.7-9.3,5.7Zm-158.7-8.2-9.1-3.1c1,2.4,1.6,3.7,2.4,5.7l-35.5-2c-4.6-.3-8.9-.5-12.8,2.7-1.1.9-3.4.6-5.1.4-5.5-.6-11-1.4-16.5-2.2l-.2,1.4,6.8,3.7-6.1.7-5.2.3c6,5.6,6,5.8,12.5,4.7,9.5-1.6,19-3,28.5-5.7s19.8-.3,29.8-.2c1,0,2-.1,3,0,6.7.6,13.2-.1,19.3-3.5,1.7-1,4.1-1.1,6.3-1.1,16.4-.1,32.9-.1,49.4.1,3.3,0,6.6.9,10.3,1.4.7-.7,1.7-1.9,2.7-3.1l5.5,3.3,1.2-1.2c-1.3-1.6-2.5-4.6-4.1-4.8-17-2-34-3.5-51.6-5.2,1,1.9,1.7,3.3,2.7,5.4l-35.2-3.2,1.8,4.5Zm88.8-1.4c9.3-3.7,17.2-9.3,17.4-12.2C852.7,584.3,841.6,591.8,841.3,595.3Zm-3,56.9,1.5.9c5.2-3.2,10.5-6.2,15.6-9.5.7-.4.8-1.7,1.1-2.6s-1.9-.3-2.6.1c-4.7,2.8-9.4,5.6-14,8.5C839.1,650.1,838.8,651.3,838.3,652.2Zm27.3-16.4,1.1,1L883,627c.5-.3.4-1.6.5-2.4a6.9,6.9,0,0,0-2.5.3c-4.7,2.6-9.5,5.3-14.1,8.2C866.2,633.5,866,634.9,865.6,635.8Z" transform="translate(-619 -198)"/><path class="cls-10" d="M815.4,654l4,6.8c-3.1,3.2-4.8,6.3-2.3,10.9,1,1.9.7,5-.1,7.1-4.3,12.4-9,24.6-13.5,37a8.5,8.5,0,0,0-.4,2.3l-5.1,2.8c1.5,2.9-1.3,3.7-3,4,.3,2.4.6,4.5.9,7l2.1,1.7c-7,3.8-12.6,8.8-14.6,16.9l-5,.4c-1.1-8.5-2.6-17.2,9.2-21.5l-8.1-2.1c4.4-3.6,8.1-6.9,12.1-9.7a20,20,0,0,0,8.5-12.3c1.3-5.6,3.4-11,5.2-16.6l-6.6-3.1,8.4-5.7-9.8-1.2c3.9-4,7.2-7.3,10.3-10.8s8.3-6.6,6.3-12.9C813.9,654.8,814.8,654.3,815.4,654Z" transform="translate(-619 -198)"/><path class="cls-10" d="M891.5,629c-3.9-.3-6-2.4-6.5-6.2l28.3,2.5c1.3.1,3.2.7,3.8,0,6-6.1,13-1.9,19.4-1.9,3.5.1,6.4.5,8.6-3a5.3,5.3,0,0,1,4.2-1.3c7.2.9,14.4,2,21.6,3.1-.2,1-.5,1.9-.7,2.9l-16.4,1.4,13.3,5.1-.3,1-30.6-2.1c-4.6-.3-9.3-.7-13.9-.8-1.9,0-3.9.9-7,1.7l7,6.3c-6.5.4-11.9,3-17.6-1.1C900.6,633.7,895.9,631.5,891.5,629Z" transform="translate(-619 -198)"/><path class="cls-7" d="M837.2,684.6c-4.4-3.4-7.5-7-4.7-12.8,2-4.2,6.5-3.1,9.7-3.9,1.2-.3,4.9,3.5,5.2,5.7C848.1,680.6,847.4,681,837.2,684.6Zm8-9.1c-2.8-1.7-4.3-3.4-5.8-3.4s-3.4,2.4-3.2,3.3,2,3.5,3.4,3.7S842.5,677.4,845.2,675.5Z" transform="translate(-619 -198)"/><path class="cls-10" d="M883.1,613.1l-4.7-.8c1.1-1.1,2-2.5,3.3-3.2a58.7,58.7,0,0,1,6.3-2.4h16l3.7,6.2-18.8.6A36.9,36.9,0,0,1,883.1,613.1Z" transform="translate(-619 -198)"/><path class="cls-7" d="M817,693.5c10.9-.7,12.2,1.5,8.3,15.6-2.8-.5-6.3-.3-8.4-1.9C811.1,702.9,814.6,698.1,817,693.5Zm4.8,1.6c-1.9,2.8-3.8,4.3-3.7,5.6s2,3.2,3.5,3.6,3.2-2,3.3-3.2S823.4,698.1,821.8,695.1Z" transform="translate(-619 -198)"/><path class="cls-10" d="M778.8,766.7c-2.2,2.4-4.1,5.1-6.6,7.2s-4.4,2.5-6.6,3.6l-1.2-1.5,6.3-7.8c-6.5-4.2-6.5-4.2,1.5-10.3Z" transform="translate(-619 -198)"/><path class="cls-7" d="M798,733.6l-2.1-1.7c-.3-2.5-.6-4.6-.9-7,1.7-.3,4.5-1.1,3-4l5.1-2.8c2.3,3,6.4,4.8,6,9.5A7.7,7.7,0,0,1,798,733.6Zm10-6.1c-2.6-2-4-3.8-5.5-3.8s-3.5,2-3.4,3,1.7,3.6,3.1,3.9S805.1,729.2,808,727.5Z" transform="translate(-619 -198)"/><path class="cls-7" d="M778.8,766.7l-6.6-8.8,6.2-7,5-.4c6.2,4.4,7.6,9.4,3.2,13.1C784.5,765.2,781.5,765.7,778.8,766.7Zm2.1-15.5c-2.2,3.4-4.5,5.4-4.2,7.1s2.9,3.8,4.8,4,3.8-2.7,3.9-4.3S783.2,754.4,780.9,751.2Z" transform="translate(-619 -198)"/><path class="cls-7" d="M970.2,625.1c.2-1,.5-1.9.7-2.9,4.7-6.4,12.8-4.4,14.5.8,1.1,3.3-.8,8.6-3.7,9.8a8,8,0,0,1-10-3.5A35.2,35.2,0,0,1,970.2,625.1Zm8-6.1c-2.2,3.1-4.5,5.1-4.2,6.5s2.9,3.2,4.4,4.7c1.5-1.5,4.2-2.9,4.2-4.5S980.4,622.1,978.2,619Z" transform="translate(-619 -198)"/><path class="cls-10" d="M918.2,611.8l15.8-8.3.6,2.1-.7.9h1.6l8-1C936.2,614.3,926.7,610.9,918.2,611.8Z" transform="translate(-619 -198)"/><path class="cls-3" d="M943.7,400.6l-1.8,2.6c-5-13.4-7.5-26.9-1.8-40.7,4.1-.5,6.7,1.6,8,5.2s2.7,8.8,4,13.3c-2.3,3.8-4.9,7.4-6.8,11.4S944.2,397.9,943.7,400.6Z" transform="translate(-619 -198)"/><path class="cls-8" d="M952.1,381c-1.3-4.5-2.5-8.9-4-13.3s-3.9-5.7-8-5.2c-.7-3.4-1.9-7.4,1.7-9.3s7.3.3,9.4,5.6C954,366,956.9,373.3,952.1,381Z" transform="translate(-619 -198)"/><path class="cls-9" d="M927.9,432c-.5-9-1.1-18-1.6-27C926.8,414,927.4,423,927.9,432Z" transform="translate(-619 -198)"/><path class="cls-9" d="M989.3,427.6l-3,10.5-4.3-2.9c2.5.8,3.8-.3,4.7-2.6S988.4,429.3,989.3,427.6Z" transform="translate(-619 -198)"/><path class="cls-9" d="M981.8,435l-1.9-1.8Z" transform="translate(-619 -198)"/><path class="cls-7" d="M855,495.3l4.7,5.1c-4.4,4.1-10.2,1.7-12-3.9-1.8-.6-3.6-.7-4.1-1.5a39.2,39.2,0,0,1-3.4-7.9c-.1-.4,1.6-1.4,2.5-2.1Z" transform="translate(-619 -198)"/><path class="cls-8" d="M1150.6,363.3l-2.9,10.6c-11.5-4.7-22-9.9-29.3-19.6-3.6-4.7-2.9-14.8.4-18.5-.1,6.9,3.1,12,8.8,15.7s11.7,7.3,17.7,10.8C1146.8,363.1,1148.8,363,1150.6,363.3Z" transform="translate(-619 -198)"/><path class="cls-8" d="M1122,324.3l-9.9,5.1c1.1-6.9,5.1-11.6,10.8-15l1.5.5Z" transform="translate(-619 -198)"/><path class="cls-3" d="M806,489.1c-.5,3.4-.7,6.9-1.5,10.2-.3,1.3-1.7,2.4-2.6,3.7-1.4-1.2-3.8-2.2-4.1-3.6-2.1-11.2-4.4-22.5,0-33.7.7.4,1.9.7,2.1,1.3C802,474.3,804,481.7,806,489.1Z" transform="translate(-619 -198)"/><path class="cls-8" d="M806,489.1c-2-7.4-4-14.8-6.1-22.1-.2-.6-1.4-.9-2.1-1.3-.7-4.2,1.2-7.3,4.4-9.9,2.1,7.4,4.8,14.5,6.1,21.9C808.9,481.3,806.8,485.3,806,489.1Z" transform="translate(-619 -198)"/><path class="cls-3" d="M998.2,750.8l-1.5,6-1.5.6c-1.2-1.6-3.4-3.1-3.6-4.8-1.2-9-1.9-18-2.5-27-.1-1.3,1.8-2.6,2.8-3.9C995.5,731.1,999.8,740.3,998.2,750.8Z" transform="translate(-619 -198)"/><path class="cls-8" d="M998.2,750.8c1.6-10.5-2.7-19.7-6.3-29.1-1.1-6.4-1.1-6.4,3.1-12h.5c-1.4,7,3.4,12.5,4.7,18.8A34.6,34.6,0,0,1,998.2,750.8Z" transform="translate(-619 -198)"/><path class="cls-10" d="M1177.2,404.6c-.3,5.8-1.8,9.2-6.7,12.7-6.5,4.7-11.4,11.8-17,17.9l-3.1,3.3c-.6-1.6-1-2.8-1.4-3.6,2.9-.4,4.3-2.3,3.8-5.6s-.7-8.1,6.2-7.7,7.2-5.6,8.7-9.6S1173.2,406.6,1177.2,404.6Z" transform="translate(-619 -198)"/><path class="cls-10" d="M1192.8,424.3l21.5,5.6-6.6,5.2,5.7-.7.5,1.4-13.9,5.4.6-2.2c-1.5-2.3-2.7-5-4.7-6.8s-6.7-4.5-9.7-7.9Z" transform="translate(-619 -198)"/><path class="cls-10" d="M1191,396.5l-1.8,10.1c-1.1,4.5-2.3,9.1-3.6,14.1-.1-.2-1.4-1-1.6-2a71.8,71.8,0,0,1-1-10.3c0-2.9-.3-5-3.8-4.4.3-1.8.2-3.7,1.1-5s3.9-5.7,7.9-2.7C1188.9,396.8,1190.1,396.4,1191,396.5Z" transform="translate(-619 -198)"/><path class="cls-10" d="M1162.5,451.6c1.1-2.1,1.7-4.3,3-6.1s3.8-4.1,6.2-.6c.7,1.1,1.3,2.3,2.2,4C1171.9,452.9,1166.5,450.3,1162.5,451.6Z" transform="translate(-619 -198)"/><path class="cls-10" d="M1181.3,444.7c1.8-2.4,3.2-5.8,5.5-6.7s4.8,1.9,7.3,3.1v2.1l-12.3,2.8C1181.6,445.6,1181.5,445.1,1181.3,444.7Z" transform="translate(-619 -198)"/><path class="cls-10" d="M1142,444.9h-2.2c.2-.2.1-.4-.1-.6l3.1-2.8c.9.5,3-2.8,3,.9-.3.6-.5,1.2-.8,1.7h0l-3,1Z" transform="translate(-619 -198)"/><path class="cls-10" d="M1146.2,449.8H1144l1.6-2.1,2.2-1.5,2,1.3Z" transform="translate(-619 -198)"/><path class="cls-5" d="M1146.2,449.8l3.6-2.4c.4.6.7,1.3,1.2,2.1l-3.2,1.3-.2.2h-.3Z" transform="translate(-619 -198)"/><path class="cls-9" d="M1147.8,446.1l-2.2,1.5-.9-.9.9-1.1,2.1-.6Z" transform="translate(-619 -198)"/><path class="cls-10" d="M1147.7,445l-2.1.6a4.6,4.6,0,0,1-.7-.7,2.8,2.8,0,0,1,.1-.9h0l.9-.4Z" transform="translate(-619 -198)"/><path class="cls-9" d="M1145.9,443.6l-.9.4c.3-.5.5-1.1.8-1.7S1145.9,443.2,1145.9,443.6Z" transform="translate(-619 -198)"/><path class="cls-3" d="M1010.9,401.3a66.8,66.8,0,0,1-6.6-32.3c0-.7.6-1.4.9-2.2a38,38,0,0,1,10.9,20c0,3.1-.6,6.3.2,9.1s-.5,6.8-3.4,9.2h0v-5.5l-1.1-.2Z" transform="translate(-619 -198)"/><path class="cls-8" d="M1016.1,386.8a38,38,0,0,0-10.9-20,54.4,54.4,0,0,1,.3-8.1c.1-.5,3.6-1.2,4.1-.6,8.2,10.5,14.6,28.2,8.4,42.9C1017.4,396.2,1016.7,391.5,1016.1,386.8Z" transform="translate(-619 -198)"/><path class="cls-4" d="M1016.1,386.8c.6,4.7,1.3,9.4,1.9,14.2a19.5,19.5,0,0,1-.8,4.2,5.8,5.8,0,0,1-1.7,2.1l-2.6-2.2c2.9-2.4,4.5-5,3.4-9.2S1016.1,389.9,1016.1,386.8Z" transform="translate(-619 -198)"/><path class="cls-8" d="M1006.1,418.9c-4.4.5-6.1-2.2-7.1-5.9Z" transform="translate(-619 -198)"/><path class="cls-4" d="M1010.9,401.3l.9-1.9,1.1.2v5.5Z" transform="translate(-619 -198)"/><path class="cls-8" d="M1075.3,677.1c-.4-1.9-1.3-3.9-.9-5.7a6.3,6.3,0,0,1,3.1-3.9c.7-.3,2.9,1.2,3.6,2.3,3.1,5.3,5.5,10.7,3.1,17-.2.6-1.2.8-1.9,1.2-1.3-2.7-2.5-5.6-4-8.2C1077.7,678.7,1076.3,678,1075.3,677.1Z" transform="translate(-619 -198)"/><path class="cls-4" d="M1075.3,677.1c1,.9,2.4,1.6,3,2.7,1.5,2.6,2.7,5.5,4,8.2-.6,3.1-1.9,5.2-6.2,4.8C1075.9,687.5,1075.6,682.3,1075.3,677.1Z" transform="translate(-619 -198)"/><path class="cls-8" d="M957.9,743.2l1.2,5.9-.2-.2c-.6-.6-1.4-1.8-1.7-1.7A7.3,7.3,0,0,0,955,749h0c-6.2.8-6.6-4.1-8-8,.5.2,1.2.2,1.3.6C950.7,747.1,954.2,745.7,957.9,743.2Z" transform="translate(-619 -198)"/><path class="cls-8" d="M947.1,741c-3.4-.2-3.1-2.7-3.1-4.9Z" transform="translate(-619 -198)"/><path class="cls-7" d="M800.9,526.1c-1,.6-2,1.4-3.1,2-2.9,1.6-5.3,1.6-6.7-1.3l.3-2,9.7,1.1Z" transform="translate(-619 -198)"/><path class="cls-7" d="M802,526c-.1.9-.3,1.8-.4,2.7h-.7v-2.5l.2-.2Z" transform="translate(-619 -198)"/><path class="cls-7" d="M802,526a4.1,4.1,0,0,1,1.1-.7l.2.3-1.3.4Z" transform="translate(-619 -198)"/><path class="cls-4" d="M1117,466l17-10-8,7h0Z" transform="translate(-619 -198)"/><path class="cls-4" d="M1134,456l3-4h0l2-1h0l3.6-.6.5.8Z" transform="translate(-619 -198)"/><path class="cls-4" d="M1137,452h-3l5-3v2h0l-2,1Z" transform="translate(-619 -198)"/><path class="cls-4" d="M1099,479h3c-1.6.7-2.6,4.5-5,1h0l2-1Z" transform="translate(-619 -198)"/><path class="cls-4" d="M1107,476l-5,3h0l5-3Z" transform="translate(-619 -198)"/><path class="cls-10" d="M1145.6,445.6l-.9,1.1-2.1.7-.9-.8.3-1.7h2.9A4.6,4.6,0,0,0,1145.6,445.6Z" transform="translate(-619 -198)"/><path class="cls-4" d="M1108,475l4-2h0l-4,2Z" transform="translate(-619 -198)"/><path class="cls-4" d="M1112,473l3-2h0l-3,2Z" transform="translate(-619 -198)"/><path class="cls-4" d="M1120,468l-2.1,1.7-.5-.7,2.6-1Z" transform="translate(-619 -198)"/><path class="cls-4" d="M1123,466l-3,2h0l3-2Z" transform="translate(-619 -198)"/><path class="cls-4" d="M1141.7,446.6l.9.8-1.6.6Z" transform="translate(-619 -198)"/><path class="cls-4" d="M1139,449l2-1Z" transform="translate(-619 -198)"/><path class="cls-4" d="M1125,465a12.4,12.4,0,0,0-2,1h0l2-1Z" transform="translate(-619 -198)"/><path class="cls-4" d="M1126,463l1.2.7-1.2.3h0v-1Z" transform="translate(-619 -198)"/><path class="cls-4" d="M1115,471a1.2,1.2,0,0,0,.5-.5.6.6,0,0,1-.1.4Z" transform="translate(-619 -198)"/><path class="cls-4" d="M1107,476l1-1h0l-1,1Z" transform="translate(-619 -198)"/><path class="cls-4" d="M1125,465l1-1h0a9.4,9.4,0,0,0-1,1Z" transform="translate(-619 -198)"/><path class="cls-7" d="M872.4,478.7l11.6,6.6a2.4,2.4,0,0,1,.8,2.1,3.4,3.4,0,0,1-2.2,1.5C876.9,490.1,873.5,487,872.4,478.7Z" transform="translate(-619 -198)"/><path class="cls-9" d="M928.3,586.3l-.3-1.4,6-2.9Z" transform="translate(-619 -198)"/><path class="cls-7" d="M837.8,465l-2.2-7,1.8-.6,2.4,7Z" transform="translate(-619 -198)"/><path class="cls-4" d="M1130,450l-7,4v-2h0Z" transform="translate(-619 -198)"/><path class="cls-4" d="M1123,454l-7,4Z" transform="translate(-619 -198)"/><path class="cls-4" d="M1116,458l-7,4Z" transform="translate(-619 -198)"/><path class="cls-4" d="M1100,464l-6,4-.6-1.2,6.6-2.8Z" transform="translate(-619 -198)"/><path class="cls-4" d="M1124,450c-.3.7-.7,1.3-1,2h0l-6,2h0l7-4Z" transform="translate(-619 -198)"/><path class="cls-4" d="M1109,462l-5,3Z" transform="translate(-619 -198)"/><path class="cls-4" d="M1104,465l-4,3Z" transform="translate(-619 -198)"/><path class="cls-4" d="M1136,447l-4,2Z" transform="translate(-619 -198)"/><path class="cls-4" d="M1105,461l-4,2h0l4-2Z" transform="translate(-619 -198)"/><path class="cls-4" d="M1131,446l-3,2h0l3-2Z" transform="translate(-619 -198)"/><path class="cls-4" d="M1110,458l4-2h0l-4,2Z" transform="translate(-619 -198)"/><path class="cls-4" d="M1107,460l3-2h0l-3,2Z" transform="translate(-619 -198)"/><path class="cls-4" d="M1139.7,444.2c.2.2.3.4.1.6L1137,446Z" transform="translate(-619 -198)"/><path class="cls-4" d="M1128,448l-1.1.7-.3-.4,1.4-.3Z" transform="translate(-619 -198)"/><path class="cls-4" d="M1107,460l-2,1h0l2-1Z" transform="translate(-619 -198)"/><path class="cls-4" d="M1132,445l1.2-.7-1.2.7Z" transform="translate(-619 -198)"/><path class="cls-4" d="M1132,449l-2,1Z" transform="translate(-619 -198)"/><path class="cls-4" d="M1115,455l2-1h0l-2,1Z" transform="translate(-619 -198)"/><path class="cls-4" d="M1137,446l-1,1Z" transform="translate(-619 -198)"/><path class="cls-4" d="M1131,446l1-1h0a4.7,4.7,0,0,0-1,1Z" transform="translate(-619 -198)"/><path class="cls-4" d="M1124,450l.5-.4v.2l-.4.2Z" transform="translate(-619 -198)"/><path class="cls-4" d="M1114,456l1-1h0l-1,1Z" transform="translate(-619 -198)"/><path class="cls-4" d="M1100,464l1-1h0l-1,1Z" transform="translate(-619 -198)"/><path class="cls-7" d="M1060,644.9l-2.2,2.4a27.7,27.7,0,0,1-1-2.6Z" transform="translate(-619 -198)"/><path class="cls-4" d="M1065,648.1l-1.1-2.1Z" transform="translate(-619 -198)"/><path class="cls-4" d="M1064,646.1l-1.2-.7Z" transform="translate(-619 -198)"/><path class="cls-7" d="M689.8,480.2l.5,4.4,3.6-1.6.9.8c-.7,1-1.2,2.8-2,2.9-2.6.3-5.6.8-7.8-.2-6.5-2.7-12.7-1.8-19.1,0-.8-3.5,2.4-7.4,6.9-7.3,2.9,0,6.1-1.6,9.1,1.6C682.9,481.9,686.7,480.5,689.8,480.2Z" transform="translate(-619 -198)"/><path class="cls-8" d="M959.1,749.1,954,753c.3-1.3.7-2.7,1-4h3.9Z" transform="translate(-619 -198)"/><path class="cls-10" d="M904,543c-3.5,3.5-7.6,6.6-10.3,10.7s-5.4,10.9-8.1,16.3c-1.6,3.2-3.1,6.5-5.3,9.2a85.3,85.3,0,0,1-9.8,9.2c-2.4,2.1-4.6,1.9-4.4-1.8a14.9,14.9,0,0,1,2.5-7.5A104.4,104.4,0,0,1,880,566.6c3.8-3.6,5.9-7.4,5.6-12.7-.3-2.9.2-5.9.3-8.9l5.9-5.9c.1,2.3.2,4.5.3,5.8l7.8-3.6H902l1.9.3Z" transform="translate(-619 -198)"/><path class="cls-7" d="M903.9,541.5l-1.9-.3h-2.1l-7.8,3.6c-.1-1.3-.2-3.5-.3-5.8C896.5,535.4,901.4,536.4,903.9,541.5Z" transform="translate(-619 -198)"/><path class="cls-7" d="M1071.4,654.8c-1.3.8-3.1,2.4-3.8,2a83.3,83.3,0,0,1-9.9-5.9l1.3-2.3,5.6,3,6.7,3.2Z" transform="translate(-619 -198)"/><path class="cls-4" d="M918,569.5l-.9-2.5q28-15.7,56-31.6l38.6-22a4.8,4.8,0,0,1,4-.5l-12.5,7.4c-22.6,13.1-45.2,26.1-67.8,39.3A18.2,18.2,0,0,0,932,563h0Z" transform="translate(-619 -198)"/><path class="cls-9" d="M918,569.5l14-6.5-12.8,8Z" transform="translate(-619 -198)"/><path class="cls-9" d="M924.2,580.8l-1.2-3.7c9.8-5.7,19.5-11.5,29.2-17.3.9-.4,1.9-.5,2.8-.8-.8,1-1.4,2.3-2.4,2.9-8.3,5.1-16.8,10-25.1,15.1C926.1,577.8,925.3,579.5,924.2,580.8Z" transform="translate(-619 -198)"/><path class="cls-9" d="M926.4,582.3a6.5,6.5,0,0,1-.4-1.3l3-1Z" transform="translate(-619 -198)"/><path class="cls-4" d="M1123,458l-6,4Z" transform="translate(-619 -198)"/><path class="cls-4" d="M1105,469l-6,3Z" transform="translate(-619 -198)"/><path class="cls-4" d="M1117,462l-6,3Z" transform="translate(-619 -198)"/><path class="cls-4" d="M1132,453l-5,3Z" transform="translate(-619 -198)"/><path class="cls-4" d="M1109,466l-2,2Z" transform="translate(-619 -198)"/><path class="cls-4" d="M1125,457l-2,1Z" transform="translate(-619 -198)"/><path class="cls-4" d="M1111,465l-2,1Z" transform="translate(-619 -198)"/><path class="cls-4" d="M1107,468l-2,1Z" transform="translate(-619 -198)"/><path class="cls-4" d="M1134,452l-2,1Z" transform="translate(-619 -198)"/><path class="cls-4" d="M1127,456l-2,1Z" transform="translate(-619 -198)"/><path class="cls-9" d="M1099,479l-2,1Z" transform="translate(-619 -198)"/><path class="cls-10" d="M753.3,595.7l-1.8-4.5,35.2,3.2c-1-2.1-1.7-3.5-2.7-5.4,17.6,1.7,34.6,3.2,51.6,5.2,1.6.2,2.8,3.2,4.1,4.8l-1.2,1.2-5.5-3.3c-1,1.2-2,2.4-2.7,3.1-3.7-.5-7-1.4-10.3-1.4-16.5-.2-33-.2-49.4-.1-2.2,0-4.6.1-6.3,1.1-6.1,3.4-12.6,4.1-19.3,3.5-1-.1-2,0-3,0-10-.1-20.6-2.4-29.8.2s-19,4.1-28.5,5.7c-6.5,1.1-6.5.9-12.5-4.7l5.2-.3,6.1-.7-6.8-3.7.2-1.4c5.5.8,11,1.6,16.5,2.2,1.7.2,4,.5,5.1-.4,3.9-3.2,8.2-3,12.8-2.7l35.5,2c-.8-2-1.4-3.3-2.4-5.7l9.1,3.1h1.2Z" transform="translate(-619 -198)"/><path class="cls-10" d="M897.4,582c-2.5-2.9-4.9-5.9-7.8-9.4l16.7-9.8c1,3.1,1.9,5.6,2.4,7s1.6,3.3,2.2,4.4l-.9.8h0l-.4-.2-.3.3-3.6-1.8c-.3,1.5-.6,3.1-.8,4.8h.1l-7,4h0l-.3-.2Z" transform="translate(-619 -198)"/><path class="cls-10" d="M904.9,578.1l2.1,3.5v.3c1.6,2.1,4.2,4,4.7,6.3s-1.7,4.5-3.5,5.8-4.7,1.5-6-1.8-2.8-6.8-4.2-10.2h0l7-4Z" transform="translate(-619 -198)"/><path class="cls-10" d="M919.1,597c.4-2.2-2.4-5.8,3.2-6.1l3.7,5.8,3.8.7c-1,1.1-1.8,2.5-3,3.3a121.9,121.9,0,0,1-12,7.1c-.8.5-2.4-.5-3.6-.9L918,601h-.1l4.1-.6.2-1.3L919,597Zm3.6,1.4.4.6,2-1.3-.6-.8Z" transform="translate(-619 -198)"/><path class="cls-6" d="M904,606.7H888c3-2.3,6-4.9,9.2-7,.7-.5,2.9.2,3.6,1A34.6,34.6,0,0,1,904,606.7Z" transform="translate(-619 -198)"/><path class="cls-10" d="M841.3,595.3c.3-3.5,11.4-11,17.4-12.2C858.5,586,850.6,591.6,841.3,595.3Z" transform="translate(-619 -198)"/><path class="cls-10" d="M856.3,612.5c3.4,3.3,8.2,5.8,7,11.8-.1.4.3,1,.6,1.3a3.5,3.5,0,0,0,1.3.5c.1.1.3,0,.4,0l-.8.7-.8.6-8.3-12.6Z" transform="translate(-619 -198)"/><path class="cls-10" d="M838.3,652.2c.5-.9.8-2.1,1.6-2.6,4.6-2.9,9.3-5.7,14-8.5.7-.4,1.7-.1,2.6-.1s-.4,2.2-1.1,2.6c-5.1,3.3-10.4,6.3-15.6,9.5Z" transform="translate(-619 -198)"/><path class="cls-10" d="M911.2,604.9l-5.3-4.9,9.3-5.7,3.9,2.7H919c-.4,1.3-.7,2.7-1.1,4h.1Z" transform="translate(-619 -198)"/><path class="cls-10" d="M865.6,635.8c.4-.9.6-2.3,1.3-2.7,4.6-2.9,9.4-5.6,14.1-8.2a6.9,6.9,0,0,1,2.5-.3c-.1.8,0,2.1-.5,2.4l-16.3,9.8Z" transform="translate(-619 -198)"/><path class="cls-10" d="M825.3,617.8l-4.9-2.5,13.1-8.1v5.9L831,615h0Z" transform="translate(-619 -198)"/><path class="cls-10" d="M861.4,603c-4.8,1.2-2.4-5.3-5.9-5.6-.6-.1-1-1.9-1.7-3.2l5-3c.7,2.9,1.2,5.2,1.8,7.5,1.9-.3,3.4.9,2.3,4.3h-1.5Z" transform="translate(-619 -198)"/><path class="cls-10" d="M813.3,630.1l-8.1-6.5,5.1-3.4c1.5,2.6,2.8,4.8,4,7.1l.3,1.5V630Z" transform="translate(-619 -198)"/><path class="cls-10" d="M847.7,635l3,2.1c-3.6,2.3-6.6,4.2-9.8,6s-3.1,0-2.8-2.3Z" transform="translate(-619 -198)"/><path class="cls-10" d="M833.7,614.3c3.1-1.1,3.9-.1,2.9,2.9l-9.5,5.5c-.5-1.3-1.1-2.5-1.6-3.7l5.5-4h0Z" transform="translate(-619 -198)"/><path class="cls-10" d="M832.4,631l-2.2-3.2,9.5-5.7,2.2,3.2Z" transform="translate(-619 -198)"/><path class="cls-10" d="M865.9,606.2l5.4,7-5.5,3.4c.4-2.2.6-3.4.9-4.5l1.2-1.4-1.6.4-3.1-2.5L866,606Z" transform="translate(-619 -198)"/><path class="cls-10" d="M834.3,635.4l-1.5-3.2,11.1-5.7.6.7v.3h.3v1.7Z" transform="translate(-619 -198)"/><path class="cls-10" d="M845.8,630.6c.4,1.1.9,2.1,1.4,3.2l-10.1,6-1.9-2.9Z" transform="translate(-619 -198)"/><path class="cls-10" d="M849.2,604.2l-5.3-2.6c.5-.7,1-1.5,1.6-2.2l4.3-3,2.7,5.5Z" transform="translate(-619 -198)"/><path class="cls-9" d="M849.2,604.2l3.3-2.3,3.4,5.6-3.4,2.5Z" transform="translate(-619 -198)"/><path class="cls-10" d="M836.7,618.6l3.1,1.8-10.7,6.4c-.4-1-.9-2.1-1.4-3.1Z" transform="translate(-619 -198)"/><path class="cls-5" d="M845.8,630.6l-10.6,6.3-.9-1.5,10.5-6.1Z" transform="translate(-619 -198)"/><path class="cls-5" d="M843.9,626.5l-11.1,5.7c-.1-.4-.3-.8-.4-1.2l9.5-5.7Z" transform="translate(-619 -198)"/><path class="cls-5" d="M829.1,626.8l10.7-6.4c0,.6-.1,1.1-.1,1.7l-9.5,5.7A5.2,5.2,0,0,0,829.1,626.8Z" transform="translate(-619 -198)"/><path class="cls-5" d="M836.7,618.6l-9,5.1-.6-1,9.5-5.5A6.6,6.6,0,0,1,836.7,618.6Z" transform="translate(-619 -198)"/><path class="cls-5" d="M837.1,639.8l10.1-6a6.1,6.1,0,0,0,.5,1.2l-9.6,5.8Z" transform="translate(-619 -198)"/><path class="cls-10" d="M823.9,643.4c4.3,3.3-.3,3.8-2.3,6.4-.5-2.1-.9-3.3-1.2-4.5L822,644h0Z" transform="translate(-619 -198)"/><path class="cls-9" d="M911.2,604.9,918,601l-6.8,5.9Z" transform="translate(-619 -198)"/><path class="cls-10" d="M863.6,602.9l2.3,3.3V606l-2.7,1.1c-2.9.3-3.2-.9-1.7-3L863,603h0l.3.2Z" transform="translate(-619 -198)"/><path class="cls-10" d="M821.7,639.2l1.4,3A17.4,17.4,0,0,0,822,644h0l-1.8.2-2.1-3.4Z" transform="translate(-619 -198)"/><path class="cls-10" d="M911.3,579.1l-2.1-2.5.8-1.6h0l1.5.2,2.1,2.1Z" transform="translate(-619 -198)"/><path class="cls-10" d="M817.2,640c-.7-1.1-1.4-2.2-2.2-3.3l3-1.8,2.1,3.3Z" transform="translate(-619 -198)"/><path class="cls-10" d="M852.5,610l3.4-2.5c.2,1.2.3,2.4.5,3.6l-2.2,1.1Z" transform="translate(-619 -198)"/><path class="cls-10" d="M814.3,635.6l-.9-3.7,1.4-.9c2.8-.3,3.9.5,2,3.2A20.1,20.1,0,0,0,814.3,635.6Z" transform="translate(-619 -198)"/><path class="cls-5" d="M831,615l-5.5,4a5,5,0,0,1-.2-1.2Z" transform="translate(-619 -198)"/><path class="cls-10" d="M913.7,578.9l2.1,2.4-3.9,1.4c.2-1,.3-1.9.4-2.8Z" transform="translate(-619 -198)"/><path class="cls-5" d="M817.2,640l2.9-1.8,1.6,1-3.6,1.6Z" transform="translate(-619 -198)"/><path class="cls-5" d="M854.2,612.2l2.2-1.1,2.2.3-2.3,1.1-.6,2.3Z" transform="translate(-619 -198)"/><path class="cls-5" d="M814.3,635.6a20.1,20.1,0,0,1,2.5-1.4l1.2.7-3,1.8Z" transform="translate(-619 -198)"/><path class="cls-5" d="M814.8,631l-1.4.9h-2.8l2.7-1.8h1.3A3.6,3.6,0,0,0,814.8,631Z" transform="translate(-619 -198)"/><path class="cls-5" d="M913.7,578.9l-1.4,1a3.9,3.9,0,0,0-1-.8l2.3-1.8C913.6,577.8,913.7,578.3,913.7,578.9Z" transform="translate(-619 -198)"/><path class="cls-5" d="M863.3,607.1,866,606l-2.8,2.6C863.2,608.1,863.3,607.6,863.3,607.1Z" transform="translate(-619 -198)"/><path class="cls-5" d="M833.7,614.3l-2.7.7,2.5-1.9A5,5,0,0,1,833.7,614.3Z" transform="translate(-619 -198)"/><path class="cls-5" d="M814.6,628.8l-.3-1.5,1.3.9Z" transform="translate(-619 -198)"/><path class="cls-9" d="M822,644a17.4,17.4,0,0,1,1.1-1.8,8.3,8.3,0,0,0,.8,1.2Z" transform="translate(-619 -198)"/><path class="cls-5" d="M910,575l-.8,1.6a6.6,6.6,0,0,0,.1-1.4c0-.1.3-.4.3-.4Z" transform="translate(-619 -198)"/><path class="cls-5" d="M911.5,575.2,910,575l.9-.8Z" transform="translate(-619 -198)"/><path class="cls-5" d="M866.3,611.1l1.6-.4-1.2,1.4A4.2,4.2,0,0,1,866.3,611.1Z" transform="translate(-619 -198)"/><path class="cls-9" d="M820.2,644.2l1.8-.2-1.6,1.3A4.3,4.3,0,0,0,820.2,644.2Z" transform="translate(-619 -198)"/><path class="cls-5" d="M863,603l-1.4,1.1c-.1-.4-.1-.8-.2-1.1Z" transform="translate(-619 -198)"/><polygon class="cls-5" points="225.8 429.6 225.5 429.5 225.5 429.2 225.8 429.3 225.8 429.6"/><path class="cls-5" d="M898,582h-.6l.3-.2Z" transform="translate(-619 -198)"/><path class="cls-5" d="M863.6,602.9l-.3.3-.3-.2h.6Z" transform="translate(-619 -198)"/><path class="cls-10" d="M845.2,675.5c-2.7,1.9-4.3,3.8-5.6,3.6s-3.1-2.2-3.4-3.7,2-3.3,3.2-3.3S842.4,673.8,845.2,675.5Z" transform="translate(-619 -198)"/><path class="cls-10" d="M821.8,695.1c1.6,3,3.2,4.5,3.1,6s-2.4,3.4-3.3,3.2-3.4-2.2-3.5-3.6S819.9,697.9,821.8,695.1Z" transform="translate(-619 -198)"/><path class="cls-10" d="M808,727.5c-2.9,1.7-4.6,3.4-5.8,3.1s-3-2.4-3.1-3.9,2.3-3.1,3.4-3S805.4,725.5,808,727.5Z" transform="translate(-619 -198)"/><path class="cls-10" d="M780.9,751.2c2.3,3.2,4.5,5,4.5,6.8s-2.7,4.5-3.9,4.3-4.6-2.4-4.8-4S778.7,754.6,780.9,751.2Z" transform="translate(-619 -198)"/><path class="cls-10" d="M978.2,619c2.2,3.1,4.4,5,4.4,6.7s-2.7,3-4.2,4.5c-1.5-1.5-4-2.9-4.4-4.7S976,622.1,978.2,619Z" transform="translate(-619 -198)"/><path class="cls-6" d="M935.5,606.6h-1.6l.7-.9Z" transform="translate(-619 -198)"/><path class="cls-9" d="M1144.9,444.9H1142l3-1A2.8,2.8,0,0,0,1144.9,444.9Z" transform="translate(-619 -198)"/><path class="cls-7" d="M958.9,748.9H955a7.3,7.3,0,0,1,2.2-1.8C957.5,747.1,958.3,748.3,958.9,748.9Z" transform="translate(-619 -198)"/><path class="cls-9" d="M1137,452l2-1Z" transform="translate(-619 -198)"/><path class="cls-8" d="M899.9,541.3h0Z" transform="translate(-619 -198)"/><path class="cls-7" d="M753.3,595.7l.4,1h-1.2Z" transform="translate(-619 -198)"/><path class="cls-5" d="M905,578l-7,4Z" transform="translate(-619 -198)"/><path class="cls-7" d="M917.9,601c.4-1.3.7-2.7,1.1-4l3.2,2.1-.2,1.3Z" transform="translate(-619 -198)"/><path class="cls-9" d="M922.7,598.4l1.8-1.5.6.8-2,1.3Z" transform="translate(-619 -198)"/></svg>